ISO-10303-21;
HEADER;
FILE_DESCRIPTION(('FreeCAD Model'),'2;1');
FILE_NAME('Open CASCADE Shape Model','2026-06-26T21:07:10',(''),(''),
  'Open CASCADE STEP processor 7.8','FreeCAD','Unknown');
FILE_SCHEMA(('AUTOMOTIVE_DESIGN { 1 0 10303 214 1 1 1 1 }'));
ENDSEC;
DATA;
#1 = APPLICATION_PROTOCOL_DEFINITION('international standard',
  'automotive_design',2000,#2);
#2 = APPLICATION_CONTEXT(
  'core data for automotive mechanical design processes');
#3 = SHAPE_DEFINITION_REPRESENTATION(#4,#10);
#4 = PRODUCT_DEFINITION_SHAPE('','',#5);
#5 = PRODUCT_DEFINITION('design','',#6,#9);
#6 = PRODUCT_DEFINITION_FORMATION('','',#7);
#7 = PRODUCT('Body001','Body001','',(#8));
#8 = PRODUCT_CONTEXT('',#2,'mechanical');
#9 = PRODUCT_DEFINITION_CONTEXT('part definition',#2,'design');
#10 = ADVANCED_BREP_SHAPE_REPRESENTATION('',(#11,#15),#545);
#11 = AXIS2_PLACEMENT_3D('',#12,#13,#14);
#12 = CARTESIAN_POINT('',(0.,0.,0.));
#13 = DIRECTION('',(0.,0.,1.));
#14 = DIRECTION('',(1.,0.,-0.));
#15 = MANIFOLD_SOLID_BREP('',#16);
#16 = CLOSED_SHELL('',(#17,#99,#131,#155,#180,#197,#245,#277,#301,#326,
    #343,#377,#402,#428,#445,#457,#491,#501,#535));
#17 = ADVANCED_FACE('',(#18,#38,#58),#94,.F.);
#18 = FACE_BOUND('',#19,.T.);
#19 = EDGE_LOOP('',(#20,#31));
#20 = ORIENTED_EDGE('',*,*,#21,.T.);
#21 = EDGE_CURVE('',#22,#24,#26,.T.);
#22 = VERTEX_POINT('',#23);
#23 = CARTESIAN_POINT('',(2.44,0.,0.215));
#24 = VERTEX_POINT('',#25);
#25 = CARTESIAN_POINT('',(2.44,0.,-0.215));
#26 = CIRCLE('',#27,0.215);
#27 = AXIS2_PLACEMENT_3D('',#28,#29,#30);
#28 = CARTESIAN_POINT('',(2.44,0.,0.));
#29 = DIRECTION('',(0.,1.,0.));
#30 = DIRECTION('',(0.,0.,-1.));
#31 = ORIENTED_EDGE('',*,*,#32,.T.);
#32 = EDGE_CURVE('',#24,#22,#33,.T.);
#33 = CIRCLE('',#34,0.215);
#34 = AXIS2_PLACEMENT_3D('',#35,#36,#37);
#35 = CARTESIAN_POINT('',(2.44,0.,0.));
#36 = DIRECTION('',(0.,1.,0.));
#37 = DIRECTION('',(0.,0.,-1.));
#38 = FACE_BOUND('',#39,.T.);
#39 = EDGE_LOOP('',(#40,#51));
#40 = ORIENTED_EDGE('',*,*,#41,.T.);
#41 = EDGE_CURVE('',#42,#44,#46,.T.);
#42 = VERTEX_POINT('',#43);
#43 = CARTESIAN_POINT('',(-2.44,0.,0.215));
#44 = VERTEX_POINT('',#45);
#45 = CARTESIAN_POINT('',(-2.44,0.,-0.215));
#46 = CIRCLE('',#47,0.215);
#47 = AXIS2_PLACEMENT_3D('',#48,#49,#50);
#48 = CARTESIAN_POINT('',(-2.44,0.,0.));
#49 = DIRECTION('',(0.,1.,0.));
#50 = DIRECTION('',(0.,0.,1.));
#51 = ORIENTED_EDGE('',*,*,#52,.T.);
#52 = EDGE_CURVE('',#44,#42,#53,.T.);
#53 = CIRCLE('',#54,0.215);
#54 = AXIS2_PLACEMENT_3D('',#55,#56,#57);
#55 = CARTESIAN_POINT('',(-2.44,0.,0.));
#56 = DIRECTION('',(0.,1.,0.));
#57 = DIRECTION('',(0.,0.,1.));
#58 = FACE_BOUND('',#59,.T.);
#59 = EDGE_LOOP('',(#60,#71,#79,#88));
#60 = ORIENTED_EDGE('',*,*,#61,.F.);
#61 = EDGE_CURVE('',#62,#64,#66,.T.);
#62 = VERTEX_POINT('',#63);
#63 = CARTESIAN_POINT('',(3.42,0.,2.33));
#64 = VERTEX_POINT('',#65);
#65 = CARTESIAN_POINT('',(3.42,0.,-2.33));
#66 = CIRCLE('',#67,2.33);
#67 = AXIS2_PLACEMENT_3D('',#68,#69,#70);
#68 = CARTESIAN_POINT('',(3.42,0.,-1.28426065653E-15));
#69 = DIRECTION('',(0.,1.,0.));
#70 = DIRECTION('',(0.,0.,1.));
#71 = ORIENTED_EDGE('',*,*,#72,.F.);
#72 = EDGE_CURVE('',#73,#62,#75,.T.);
#73 = VERTEX_POINT('',#74);
#74 = CARTESIAN_POINT('',(-3.42,0.,2.33));
#75 = LINE('',#76,#77);
#76 = CARTESIAN_POINT('',(3.42,0.,2.33));
#77 = VECTOR('',#78,1.);
#78 = DIRECTION('',(1.,0.,-1.268072716357E-16));
#79 = ORIENTED_EDGE('',*,*,#80,.F.);
#80 = EDGE_CURVE('',#81,#73,#83,.T.);
#81 = VERTEX_POINT('',#82);
#82 = CARTESIAN_POINT('',(-3.42,0.,-2.33));
#83 = CIRCLE('',#84,2.33);
#84 = AXIS2_PLACEMENT_3D('',#85,#86,#87);
#85 = CARTESIAN_POINT('',(-3.42,0.,1.031922350628E-15));
#86 = DIRECTION('',(0.,1.,0.));
#87 = DIRECTION('',(0.,0.,1.));
#88 = ORIENTED_EDGE('',*,*,#89,.F.);
#89 = EDGE_CURVE('',#64,#81,#90,.T.);
#90 = LINE('',#91,#92);
#91 = CARTESIAN_POINT('',(3.42,0.,-2.33));
#92 = VECTOR('',#93,1.);
#93 = DIRECTION('',(-1.,0.,1.268072716357E-16));
#94 = PLANE('',#95);
#95 = AXIS2_PLACEMENT_3D('',#96,#97,#98);
#96 = CARTESIAN_POINT('',(3.42,0.,-1.28426065653E-15));
#97 = DIRECTION('',(0.,1.,0.));
#98 = DIRECTION('',(0.,0.,1.));
#99 = ADVANCED_FACE('',(#100),#126,.T.);
#100 = FACE_BOUND('',#101,.T.);
#101 = EDGE_LOOP('',(#102,#103,#111,#120));
#102 = ORIENTED_EDGE('',*,*,#61,.T.);
#103 = ORIENTED_EDGE('',*,*,#104,.F.);
#104 = EDGE_CURVE('',#105,#64,#107,.T.);
#105 = VERTEX_POINT('',#106);
#106 = CARTESIAN_POINT('',(3.42,0.5,-2.33));
#107 = LINE('',#108,#109);
#108 = CARTESIAN_POINT('',(3.42,0.5,-2.33));
#109 = VECTOR('',#110,1.);
#110 = DIRECTION('',(-0.,-1.,-0.));
#111 = ORIENTED_EDGE('',*,*,#112,.F.);
#112 = EDGE_CURVE('',#113,#105,#115,.T.);
#113 = VERTEX_POINT('',#114);
#114 = CARTESIAN_POINT('',(3.42,0.5,2.33));
#115 = CIRCLE('',#116,2.33);
#116 = AXIS2_PLACEMENT_3D('',#117,#118,#119);
#117 = CARTESIAN_POINT('',(3.42,0.5,-1.28426065653E-15));
#118 = DIRECTION('',(0.,1.,0.));
#119 = DIRECTION('',(0.,0.,1.));
#120 = ORIENTED_EDGE('',*,*,#121,.T.);
#121 = EDGE_CURVE('',#113,#62,#122,.T.);
#122 = LINE('',#123,#124);
#123 = CARTESIAN_POINT('',(3.42,0.5,2.33));
#124 = VECTOR('',#125,1.);
#125 = DIRECTION('',(-0.,-1.,-0.));
#126 = CYLINDRICAL_SURFACE('',#127,2.33);
#127 = AXIS2_PLACEMENT_3D('',#128,#129,#130);
#128 = CARTESIAN_POINT('',(3.42,0.5,-1.28426065653E-15));
#129 = DIRECTION('',(-0.,-1.,-0.));
#130 = DIRECTION('',(0.,0.,-1.));
#131 = ADVANCED_FACE('',(#132),#150,.F.);
#132 = FACE_BOUND('',#133,.T.);
#133 = EDGE_LOOP('',(#134,#135,#136,#144));
#134 = ORIENTED_EDGE('',*,*,#72,.T.);
#135 = ORIENTED_EDGE('',*,*,#121,.F.);
#136 = ORIENTED_EDGE('',*,*,#137,.F.);
#137 = EDGE_CURVE('',#138,#113,#140,.T.);
#138 = VERTEX_POINT('',#139);
#139 = CARTESIAN_POINT('',(-3.42,0.5,2.33));
#140 = LINE('',#141,#142);
#141 = CARTESIAN_POINT('',(3.42,0.5,2.33));
#142 = VECTOR('',#143,1.);
#143 = DIRECTION('',(1.,0.,-1.268072716357E-16));
#144 = ORIENTED_EDGE('',*,*,#145,.T.);
#145 = EDGE_CURVE('',#138,#73,#146,.T.);
#146 = LINE('',#147,#148);
#147 = CARTESIAN_POINT('',(-3.42,0.5,2.33));
#148 = VECTOR('',#149,1.);
#149 = DIRECTION('',(-0.,-1.,-0.));
#150 = PLANE('',#151);
#151 = AXIS2_PLACEMENT_3D('',#152,#153,#154);
#152 = CARTESIAN_POINT('',(3.42,0.5,2.33));
#153 = DIRECTION('',(-1.268072716357E-16,0.,-1.));
#154 = DIRECTION('',(-1.,0.,1.268072716357E-16));
#155 = ADVANCED_FACE('',(#156),#175,.T.);
#156 = FACE_BOUND('',#157,.T.);
#157 = EDGE_LOOP('',(#158,#159,#160,#169));
#158 = ORIENTED_EDGE('',*,*,#80,.T.);
#159 = ORIENTED_EDGE('',*,*,#145,.F.);
#160 = ORIENTED_EDGE('',*,*,#161,.F.);
#161 = EDGE_CURVE('',#162,#138,#164,.T.);
#162 = VERTEX_POINT('',#163);
#163 = CARTESIAN_POINT('',(-3.42,0.5,-2.33));
#164 = CIRCLE('',#165,2.33);
#165 = AXIS2_PLACEMENT_3D('',#166,#167,#168);
#166 = CARTESIAN_POINT('',(-3.42,0.5,1.031922350628E-15));
#167 = DIRECTION('',(0.,1.,0.));
#168 = DIRECTION('',(0.,0.,1.));
#169 = ORIENTED_EDGE('',*,*,#170,.T.);
#170 = EDGE_CURVE('',#162,#81,#171,.T.);
#171 = LINE('',#172,#173);
#172 = CARTESIAN_POINT('',(-3.42,0.5,-2.33));
#173 = VECTOR('',#174,1.);
#174 = DIRECTION('',(-0.,-1.,-0.));
#175 = CYLINDRICAL_SURFACE('',#176,2.33);
#176 = AXIS2_PLACEMENT_3D('',#177,#178,#179);
#177 = CARTESIAN_POINT('',(-3.42,0.5,1.031922350628E-15));
#178 = DIRECTION('',(-0.,-1.,-0.));
#179 = DIRECTION('',(0.,0.,-1.));
#180 = ADVANCED_FACE('',(#181),#192,.F.);
#181 = FACE_BOUND('',#182,.T.);
#182 = EDGE_LOOP('',(#183,#184,#185,#191));
#183 = ORIENTED_EDGE('',*,*,#89,.T.);
#184 = ORIENTED_EDGE('',*,*,#170,.F.);
#185 = ORIENTED_EDGE('',*,*,#186,.F.);
#186 = EDGE_CURVE('',#105,#162,#187,.T.);
#187 = LINE('',#188,#189);
#188 = CARTESIAN_POINT('',(3.42,0.5,-2.33));
#189 = VECTOR('',#190,1.);
#190 = DIRECTION('',(-1.,0.,1.268072716357E-16));
#191 = ORIENTED_EDGE('',*,*,#104,.T.);
#192 = PLANE('',#193);
#193 = AXIS2_PLACEMENT_3D('',#194,#195,#196);
#194 = CARTESIAN_POINT('',(3.42,0.5,-2.33));
#195 = DIRECTION('',(1.268072716357E-16,0.,1.));
#196 = DIRECTION('',(1.,0.,-1.268072716357E-16));
#197 = ADVANCED_FACE('',(#198,#234),#240,.T.);
#198 = FACE_BOUND('',#199,.T.);
#199 = EDGE_LOOP('',(#200,#211,#219,#228));
#200 = ORIENTED_EDGE('',*,*,#201,.F.);
#201 = EDGE_CURVE('',#202,#204,#206,.T.);
#202 = VERTEX_POINT('',#203);
#203 = CARTESIAN_POINT('',(3.42,0.5,2.13));
#204 = VERTEX_POINT('',#205);
#205 = CARTESIAN_POINT('',(3.42,0.5,-2.13));
#206 = CIRCLE('',#207,2.13);
#207 = AXIS2_PLACEMENT_3D('',#208,#209,#210);
#208 = CARTESIAN_POINT('',(3.42,0.5,-1.28426065653E-15));
#209 = DIRECTION('',(0.,1.,0.));
#210 = DIRECTION('',(0.,0.,1.));
#211 = ORIENTED_EDGE('',*,*,#212,.F.);
#212 = EDGE_CURVE('',#213,#202,#215,.T.);
#213 = VERTEX_POINT('',#214);
#214 = CARTESIAN_POINT('',(-3.42,0.5,2.13));
#215 = LINE('',#216,#217);
#216 = CARTESIAN_POINT('',(-3.42,0.5,2.13));
#217 = VECTOR('',#218,1.);
#218 = DIRECTION('',(1.,0.,-3.170181790893E-16));
#219 = ORIENTED_EDGE('',*,*,#220,.F.);
#220 = EDGE_CURVE('',#221,#213,#223,.T.);
#221 = VERTEX_POINT('',#222);
#222 = CARTESIAN_POINT('',(-3.42,0.5,-2.13));
#223 = CIRCLE('',#224,2.13);
#224 = AXIS2_PLACEMENT_3D('',#225,#226,#227);
#225 = CARTESIAN_POINT('',(-3.42,0.5,1.031922350628E-15));
#226 = DIRECTION('',(0.,1.,0.));
#227 = DIRECTION('',(0.,0.,1.));
#228 = ORIENTED_EDGE('',*,*,#229,.F.);
#229 = EDGE_CURVE('',#204,#221,#230,.T.);
#230 = LINE('',#231,#232);
#231 = CARTESIAN_POINT('',(3.42,0.5,-2.13));
#232 = VECTOR('',#233,1.);
#233 = DIRECTION('',(-1.,0.,3.170181790893E-16));
#234 = FACE_BOUND('',#235,.T.);
#235 = EDGE_LOOP('',(#236,#237,#238,#239));
#236 = ORIENTED_EDGE('',*,*,#112,.T.);
#237 = ORIENTED_EDGE('',*,*,#186,.T.);
#238 = ORIENTED_EDGE('',*,*,#161,.T.);
#239 = ORIENTED_EDGE('',*,*,#137,.T.);
#240 = PLANE('',#241);
#241 = AXIS2_PLACEMENT_3D('',#242,#243,#244);
#242 = CARTESIAN_POINT('',(3.42,0.5,-1.28426065653E-15));
#243 = DIRECTION('',(0.,1.,0.));
#244 = DIRECTION('',(0.,0.,1.));
#245 = ADVANCED_FACE('',(#246),#272,.T.);
#246 = FACE_BOUND('',#247,.T.);
#247 = EDGE_LOOP('',(#248,#256,#265,#271));
#248 = ORIENTED_EDGE('',*,*,#249,.F.);
#249 = EDGE_CURVE('',#250,#204,#252,.T.);
#250 = VERTEX_POINT('',#251);
#251 = CARTESIAN_POINT('',(3.42,3.,-2.13));
#252 = LINE('',#253,#254);
#253 = CARTESIAN_POINT('',(3.42,18.889390228267,-2.13));
#254 = VECTOR('',#255,1.);
#255 = DIRECTION('',(-0.,-1.,-0.));
#256 = ORIENTED_EDGE('',*,*,#257,.T.);
#257 = EDGE_CURVE('',#250,#258,#260,.T.);
#258 = VERTEX_POINT('',#259);
#259 = CARTESIAN_POINT('',(3.42,3.,2.13));
#260 = CIRCLE('',#261,2.13);
#261 = AXIS2_PLACEMENT_3D('',#262,#263,#264);
#262 = CARTESIAN_POINT('',(3.42,3.,-1.28426065653E-15));
#263 = DIRECTION('',(0.,-1.,0.));
#264 = DIRECTION('',(0.,0.,1.));
#265 = ORIENTED_EDGE('',*,*,#266,.T.);
#266 = EDGE_CURVE('',#258,#202,#267,.T.);
#267 = LINE('',#268,#269);
#268 = CARTESIAN_POINT('',(3.42,18.889390228267,2.13));
#269 = VECTOR('',#270,1.);
#270 = DIRECTION('',(-0.,-1.,-0.));
#271 = ORIENTED_EDGE('',*,*,#201,.T.);
#272 = CYLINDRICAL_SURFACE('',#273,2.13);
#273 = AXIS2_PLACEMENT_3D('',#274,#275,#276);
#274 = CARTESIAN_POINT('',(3.42,18.889390228267,-1.28426065653E-15));
#275 = DIRECTION('',(-0.,-1.,-0.));
#276 = DIRECTION('',(0.,0.,-1.));
#277 = ADVANCED_FACE('',(#278),#296,.F.);
#278 = FACE_BOUND('',#279,.T.);
#279 = EDGE_LOOP('',(#280,#281,#289,#295));
#280 = ORIENTED_EDGE('',*,*,#266,.F.);
#281 = ORIENTED_EDGE('',*,*,#282,.T.);
#282 = EDGE_CURVE('',#258,#283,#285,.T.);
#283 = VERTEX_POINT('',#284);
#284 = CARTESIAN_POINT('',(-3.42,3.,2.13));
#285 = LINE('',#286,#287);
#286 = CARTESIAN_POINT('',(-3.42,3.,2.13));
#287 = VECTOR('',#288,1.);
#288 = DIRECTION('',(-1.,0.,3.170181790893E-16));
#289 = ORIENTED_EDGE('',*,*,#290,.T.);
#290 = EDGE_CURVE('',#283,#213,#291,.T.);
#291 = LINE('',#292,#293);
#292 = CARTESIAN_POINT('',(-3.42,18.889390228267,2.13));
#293 = VECTOR('',#294,1.);
#294 = DIRECTION('',(-0.,-1.,-0.));
#295 = ORIENTED_EDGE('',*,*,#212,.T.);
#296 = PLANE('',#297);
#297 = AXIS2_PLACEMENT_3D('',#298,#299,#300);
#298 = CARTESIAN_POINT('',(-3.42,18.889390228267,2.13));
#299 = DIRECTION('',(-3.170181790893E-16,0.,-1.));
#300 = DIRECTION('',(-1.,0.,3.170181790893E-16));
#301 = ADVANCED_FACE('',(#302),#321,.T.);
#302 = FACE_BOUND('',#303,.T.);
#303 = EDGE_LOOP('',(#304,#305,#314,#320));
#304 = ORIENTED_EDGE('',*,*,#290,.F.);
#305 = ORIENTED_EDGE('',*,*,#306,.T.);
#306 = EDGE_CURVE('',#283,#307,#309,.T.);
#307 = VERTEX_POINT('',#308);
#308 = CARTESIAN_POINT('',(-3.42,3.,-2.13));
#309 = CIRCLE('',#310,2.13);
#310 = AXIS2_PLACEMENT_3D('',#311,#312,#313);
#311 = CARTESIAN_POINT('',(-3.42,3.,1.031922350628E-15));
#312 = DIRECTION('',(0.,-1.,0.));
#313 = DIRECTION('',(0.,0.,1.));
#314 = ORIENTED_EDGE('',*,*,#315,.T.);
#315 = EDGE_CURVE('',#307,#221,#316,.T.);
#316 = LINE('',#317,#318);
#317 = CARTESIAN_POINT('',(-3.42,18.889390228267,-2.13));
#318 = VECTOR('',#319,1.);
#319 = DIRECTION('',(-0.,-1.,-0.));
#320 = ORIENTED_EDGE('',*,*,#220,.T.);
#321 = CYLINDRICAL_SURFACE('',#322,2.13);
#322 = AXIS2_PLACEMENT_3D('',#323,#324,#325);
#323 = CARTESIAN_POINT('',(-3.42,18.889390228267,1.031922350628E-15));
#324 = DIRECTION('',(-0.,-1.,-0.));
#325 = DIRECTION('',(0.,0.,-1.));
#326 = ADVANCED_FACE('',(#327),#338,.F.);
#327 = FACE_BOUND('',#328,.T.);
#328 = EDGE_LOOP('',(#329,#330,#336,#337));
#329 = ORIENTED_EDGE('',*,*,#315,.F.);
#330 = ORIENTED_EDGE('',*,*,#331,.T.);
#331 = EDGE_CURVE('',#307,#250,#332,.T.);
#332 = LINE('',#333,#334);
#333 = CARTESIAN_POINT('',(3.42,3.,-2.13));
#334 = VECTOR('',#335,1.);
#335 = DIRECTION('',(1.,0.,-3.170181790893E-16));
#336 = ORIENTED_EDGE('',*,*,#249,.T.);
#337 = ORIENTED_EDGE('',*,*,#229,.T.);
#338 = PLANE('',#339);
#339 = AXIS2_PLACEMENT_3D('',#340,#341,#342);
#340 = CARTESIAN_POINT('',(3.42,18.889390228267,-2.13));
#341 = DIRECTION('',(3.170181790893E-16,0.,1.));
#342 = DIRECTION('',(1.,0.,-3.170181790893E-16));
#343 = ADVANCED_FACE('',(#344),#372,.T.);
#344 = FACE_BOUND('',#345,.T.);
#345 = EDGE_LOOP('',(#346,#355,#356,#365));
#346 = ORIENTED_EDGE('',*,*,#347,.F.);
#347 = EDGE_CURVE('',#258,#348,#350,.T.);
#348 = VERTEX_POINT('',#349);
#349 = CARTESIAN_POINT('',(3.42,3.5,1.63));
#350 = CIRCLE('',#351,0.5);
#351 = AXIS2_PLACEMENT_3D('',#352,#353,#354);
#352 = CARTESIAN_POINT('',(3.42,3.,1.63));
#353 = DIRECTION('',(-1.,0.,0.));
#354 = DIRECTION('',(0.,0.,1.));
#355 = ORIENTED_EDGE('',*,*,#257,.F.);
#356 = ORIENTED_EDGE('',*,*,#357,.F.);
#357 = EDGE_CURVE('',#358,#250,#360,.T.);
#358 = VERTEX_POINT('',#359);
#359 = CARTESIAN_POINT('',(3.42,3.5,-1.63));
#360 = CIRCLE('',#361,0.5);
#361 = AXIS2_PLACEMENT_3D('',#362,#363,#364);
#362 = CARTESIAN_POINT('',(3.42,3.,-1.63));
#363 = DIRECTION('',(-1.,0.,0.));
#364 = DIRECTION('',(0.,0.,1.));
#365 = ORIENTED_EDGE('',*,*,#366,.F.);
#366 = EDGE_CURVE('',#348,#358,#367,.T.);
#367 = CIRCLE('',#368,1.63);
#368 = AXIS2_PLACEMENT_3D('',#369,#370,#371);
#369 = CARTESIAN_POINT('',(3.42,3.5,-1.28426065653E-15));
#370 = DIRECTION('',(0.,1.,0.));
#371 = DIRECTION('',(0.,0.,1.));
#372 = TOROIDAL_SURFACE('',#373,1.63,0.5);
#373 = AXIS2_PLACEMENT_3D('',#374,#375,#376);
#374 = CARTESIAN_POINT('',(3.42,3.,-1.28426065653E-15));
#375 = DIRECTION('',(0.,1.,0.));
#376 = DIRECTION('',(0.,0.,1.));
#377 = ADVANCED_FACE('',(#378),#397,.T.);
#378 = FACE_BOUND('',#379,.T.);
#379 = EDGE_LOOP('',(#380,#381,#389,#396));
#380 = ORIENTED_EDGE('',*,*,#347,.T.);
#381 = ORIENTED_EDGE('',*,*,#382,.F.);
#382 = EDGE_CURVE('',#383,#348,#385,.T.);
#383 = VERTEX_POINT('',#384);
#384 = CARTESIAN_POINT('',(-3.42,3.5,1.63));
#385 = LINE('',#386,#387);
#386 = CARTESIAN_POINT('',(3.42,3.5,1.63));
#387 = VECTOR('',#388,1.);
#388 = DIRECTION('',(1.,0.,-3.170181790893E-16));
#389 = ORIENTED_EDGE('',*,*,#390,.F.);
#390 = EDGE_CURVE('',#283,#383,#391,.T.);
#391 = CIRCLE('',#392,0.5);
#392 = AXIS2_PLACEMENT_3D('',#393,#394,#395);
#393 = CARTESIAN_POINT('',(-3.42,3.,1.63));
#394 = DIRECTION('',(-1.,0.,0.));
#395 = DIRECTION('',(0.,0.,1.));
#396 = ORIENTED_EDGE('',*,*,#282,.F.);
#397 = CYLINDRICAL_SURFACE('',#398,0.5);
#398 = AXIS2_PLACEMENT_3D('',#399,#400,#401);
#399 = CARTESIAN_POINT('',(5.167396319156E-16,3.,1.63));
#400 = DIRECTION('',(-1.,0.,3.170181790893E-16));
#401 = DIRECTION('',(3.170181790893E-16,0.,1.));
#402 = ADVANCED_FACE('',(#403),#423,.T.);
#403 = FACE_BOUND('',#404,.T.);
#404 = EDGE_LOOP('',(#405,#414,#415,#416));
#405 = ORIENTED_EDGE('',*,*,#406,.T.);
#406 = EDGE_CURVE('',#407,#307,#409,.T.);
#407 = VERTEX_POINT('',#408);
#408 = CARTESIAN_POINT('',(-3.42,3.5,-1.63));
#409 = CIRCLE('',#410,0.5);
#410 = AXIS2_PLACEMENT_3D('',#411,#412,#413);
#411 = CARTESIAN_POINT('',(-3.42,3.,-1.63));
#412 = DIRECTION('',(-1.,0.,0.));
#413 = DIRECTION('',(0.,0.,1.));
#414 = ORIENTED_EDGE('',*,*,#306,.F.);
#415 = ORIENTED_EDGE('',*,*,#390,.T.);
#416 = ORIENTED_EDGE('',*,*,#417,.F.);
#417 = EDGE_CURVE('',#407,#383,#418,.T.);
#418 = CIRCLE('',#419,1.63);
#419 = AXIS2_PLACEMENT_3D('',#420,#421,#422);
#420 = CARTESIAN_POINT('',(-3.42,3.5,1.031922350628E-15));
#421 = DIRECTION('',(0.,1.,0.));
#422 = DIRECTION('',(0.,0.,1.));
#423 = TOROIDAL_SURFACE('',#424,1.63,0.5);
#424 = AXIS2_PLACEMENT_3D('',#425,#426,#427);
#425 = CARTESIAN_POINT('',(-3.42,3.,1.031922350628E-15));
#426 = DIRECTION('',(0.,1.,0.));
#427 = DIRECTION('',(0.,0.,1.));
#428 = ADVANCED_FACE('',(#429),#440,.T.);
#429 = FACE_BOUND('',#430,.T.);
#430 = EDGE_LOOP('',(#431,#432,#433,#434));
#431 = ORIENTED_EDGE('',*,*,#357,.T.);
#432 = ORIENTED_EDGE('',*,*,#331,.F.);
#433 = ORIENTED_EDGE('',*,*,#406,.F.);
#434 = ORIENTED_EDGE('',*,*,#435,.F.);
#435 = EDGE_CURVE('',#358,#407,#436,.T.);
#436 = LINE('',#437,#438);
#437 = CARTESIAN_POINT('',(-3.42,3.5,-1.63));
#438 = VECTOR('',#439,1.);
#439 = DIRECTION('',(-1.,0.,3.170181790893E-16));
#440 = CYLINDRICAL_SURFACE('',#441,0.5);
#441 = AXIS2_PLACEMENT_3D('',#442,#443,#444);
#442 = CARTESIAN_POINT('',(-5.167396319156E-16,3.,-1.63));
#443 = DIRECTION('',(1.,0.,-3.170181790893E-16));
#444 = DIRECTION('',(-3.170181790893E-16,0.,-1.));
#445 = ADVANCED_FACE('',(#446),#452,.T.);
#446 = FACE_BOUND('',#447,.T.);
#447 = EDGE_LOOP('',(#448,#449,#450,#451));
#448 = ORIENTED_EDGE('',*,*,#435,.T.);
#449 = ORIENTED_EDGE('',*,*,#417,.T.);
#450 = ORIENTED_EDGE('',*,*,#382,.T.);
#451 = ORIENTED_EDGE('',*,*,#366,.T.);
#452 = PLANE('',#453);
#453 = AXIS2_PLACEMENT_3D('',#454,#455,#456);
#454 = CARTESIAN_POINT('',(0.,3.5,0.));
#455 = DIRECTION('',(0.,1.,0.));
#456 = DIRECTION('',(0.,0.,1.));
#457 = ADVANCED_FACE('',(#458),#486,.T.);
#458 = FACE_BOUND('',#459,.T.);
#459 = EDGE_LOOP('',(#460,#461,#462,#469,#478,#485));
#460 = ORIENTED_EDGE('',*,*,#32,.F.);
#461 = ORIENTED_EDGE('',*,*,#21,.F.);
#462 = ORIENTED_EDGE('',*,*,#463,.F.);
#463 = EDGE_CURVE('',#464,#22,#466,.T.);
#464 = VERTEX_POINT('',#465);
#465 = CARTESIAN_POINT('',(2.44,-3.,0.215));
#466 = B_SPLINE_CURVE_WITH_KNOTS('',1,(#467,#468),.UNSPECIFIED.,.F.,.F.,
  (2,2),(17.1,20.1),.PIECEWISE_BEZIER_KNOTS.);
#467 = CARTESIAN_POINT('',(2.44,-3.,0.215));
#468 = CARTESIAN_POINT('',(2.44,0.,0.215));
#469 = ORIENTED_EDGE('',*,*,#470,.T.);
#470 = EDGE_CURVE('',#464,#471,#473,.T.);
#471 = VERTEX_POINT('',#472);
#472 = CARTESIAN_POINT('',(2.44,-3.,-0.215));
#473 = CIRCLE('',#474,0.215);
#474 = AXIS2_PLACEMENT_3D('',#475,#476,#477);
#475 = CARTESIAN_POINT('',(2.44,-3.,0.));
#476 = DIRECTION('',(0.,1.,0.));
#477 = DIRECTION('',(0.,0.,1.));
#478 = ORIENTED_EDGE('',*,*,#479,.T.);
#479 = EDGE_CURVE('',#471,#464,#480,.T.);
#480 = CIRCLE('',#481,0.215);
#481 = AXIS2_PLACEMENT_3D('',#482,#483,#484);
#482 = CARTESIAN_POINT('',(2.44,-3.,0.));
#483 = DIRECTION('',(0.,1.,0.));
#484 = DIRECTION('',(0.,0.,1.));
#485 = ORIENTED_EDGE('',*,*,#463,.T.);
#486 = CYLINDRICAL_SURFACE('',#487,0.215);
#487 = AXIS2_PLACEMENT_3D('',#488,#489,#490);
#488 = CARTESIAN_POINT('',(2.44,-20.1,0.));
#489 = DIRECTION('',(0.,1.,0.));
#490 = DIRECTION('',(0.,0.,1.));
#491 = ADVANCED_FACE('',(#492),#496,.F.);
#492 = FACE_BOUND('',#493,.F.);
#493 = EDGE_LOOP('',(#494,#495));
#494 = ORIENTED_EDGE('',*,*,#479,.T.);
#495 = ORIENTED_EDGE('',*,*,#470,.T.);
#496 = PLANE('',#497);
#497 = AXIS2_PLACEMENT_3D('',#498,#499,#500);
#498 = CARTESIAN_POINT('',(4.990000068903E-04,-3.,0.484441000002));
#499 = DIRECTION('',(0.,1.,-2.220446049251E-16));
#500 = DIRECTION('',(0.,2.220446049251E-16,1.));
#501 = ADVANCED_FACE('',(#502),#530,.T.);
#502 = FACE_BOUND('',#503,.T.);
#503 = EDGE_LOOP('',(#504,#505,#506,#513,#522,#529));
#504 = ORIENTED_EDGE('',*,*,#52,.F.);
#505 = ORIENTED_EDGE('',*,*,#41,.F.);
#506 = ORIENTED_EDGE('',*,*,#507,.F.);
#507 = EDGE_CURVE('',#508,#42,#510,.T.);
#508 = VERTEX_POINT('',#509);
#509 = CARTESIAN_POINT('',(-2.44,-3.,0.215));
#510 = B_SPLINE_CURVE_WITH_KNOTS('',1,(#511,#512),.UNSPECIFIED.,.F.,.F.,
  (2,2),(17.1,20.1),.PIECEWISE_BEZIER_KNOTS.);
#511 = CARTESIAN_POINT('',(-2.44,-3.,0.215));
#512 = CARTESIAN_POINT('',(-2.44,0.,0.215));
#513 = ORIENTED_EDGE('',*,*,#514,.T.);
#514 = EDGE_CURVE('',#508,#515,#517,.T.);
#515 = VERTEX_POINT('',#516);
#516 = CARTESIAN_POINT('',(-2.44,-3.,-0.215));
#517 = CIRCLE('',#518,0.215);
#518 = AXIS2_PLACEMENT_3D('',#519,#520,#521);
#519 = CARTESIAN_POINT('',(-2.44,-3.,0.));
#520 = DIRECTION('',(0.,1.,0.));
#521 = DIRECTION('',(0.,0.,1.));
#522 = ORIENTED_EDGE('',*,*,#523,.T.);
#523 = EDGE_CURVE('',#515,#508,#524,.T.);
#524 = CIRCLE('',#525,0.215);
#525 = AXIS2_PLACEMENT_3D('',#526,#527,#528);
#526 = CARTESIAN_POINT('',(-2.44,-3.,0.));
#527 = DIRECTION('',(0.,1.,0.));
#528 = DIRECTION('',(0.,0.,1.));
#529 = ORIENTED_EDGE('',*,*,#507,.T.);
#530 = CYLINDRICAL_SURFACE('',#531,0.215);
#531 = AXIS2_PLACEMENT_3D('',#532,#533,#534);
#532 = CARTESIAN_POINT('',(-2.44,-20.1,0.));
#533 = DIRECTION('',(0.,1.,0.));
#534 = DIRECTION('',(0.,0.,1.));
#535 = ADVANCED_FACE('',(#536),#540,.F.);
#536 = FACE_BOUND('',#537,.F.);
#537 = EDGE_LOOP('',(#538,#539));
#538 = ORIENTED_EDGE('',*,*,#523,.T.);
#539 = ORIENTED_EDGE('',*,*,#514,.T.);
#540 = PLANE('',#541);
#541 = AXIS2_PLACEMENT_3D('',#542,#543,#544);
#542 = CARTESIAN_POINT('',(4.990000068903E-04,-3.,0.484441000002));
#543 = DIRECTION('',(0.,1.,-2.220446049251E-16));
#544 = DIRECTION('',(0.,2.220446049251E-16,1.));
#545 = ( GEOMETRIC_REPRESENTATION_CONTEXT(3) 
GLOBAL_UNCERTAINTY_ASSIGNED_CONTEXT((#549)) GLOBAL_UNIT_ASSIGNED_CONTEXT
((#546,#547,#548)) REPRESENTATION_CONTEXT('Context #1',
  '3D Context with UNIT and UNCERTAINTY') );
#546 = ( LENGTH_UNIT() NAMED_UNIT(*) SI_UNIT(.MILLI.,.METRE.) );
#547 = ( NAMED_UNIT(*) PLANE_ANGLE_UNIT() SI_UNIT($,.RADIAN.) );
#548 = ( NAMED_UNIT(*) SI_UNIT($,.STERADIAN.) SOLID_ANGLE_UNIT() );
#549 = UNCERTAINTY_MEASURE_WITH_UNIT(LENGTH_MEASURE(1.E-06),#546,
  'distance_accuracy_value','confusion accuracy');
#550 = PRODUCT_RELATED_PRODUCT_CATEGORY('part',$,(#7));
#551 = MECHANICAL_DESIGN_GEOMETRIC_PRESENTATION_REPRESENTATION('',(#552)
  ,#545);
#552 = STYLED_ITEM('color',(#553),#15);
#553 = PRESENTATION_STYLE_ASSIGNMENT((#554,#560));
#554 = SURFACE_STYLE_USAGE(.BOTH.,#555);
#555 = SURFACE_SIDE_STYLE('',(#556));
#556 = SURFACE_STYLE_FILL_AREA(#557);
#557 = FILL_AREA_STYLE('',(#558));
#558 = FILL_AREA_STYLE_COLOUR('',#559);
#559 = COLOUR_RGB('',0.447058818107,0.474509808674,0.501960817233);
#560 = CURVE_STYLE('',#561,POSITIVE_LENGTH_MEASURE(0.1),#562);
#561 = DRAUGHTING_PRE_DEFINED_CURVE_FONT('continuous');
#562 = COLOUR_RGB('',9.803921802644E-02,9.803921802644E-02,
  9.803921802644E-02);
ENDSEC;
END-ISO-10303-21;
