ISO-10303-21;
HEADER;
FILE_DESCRIPTION(('FreeCAD Model'),'2;1');
FILE_NAME('Open CASCADE Shape Model','2026-10-03T23:27:50',('Author'),(
    ''),'Open CASCADE STEP processor 7.8','FreeCAD','Unknown');
FILE_SCHEMA(('AUTOMOTIVE_DESIGN { 1 0 10303 214 1 1 1 1 }'));
ENDSEC;
DATA;
#1 = APPLICATION_PROTOCOL_DEFINITION('international standard',
  'automotive_design',2000,#2);
#2 = APPLICATION_CONTEXT(
  'core data for automotive mechanical design processes');
#3 = SHAPE_DEFINITION_REPRESENTATION(#4,#10);
#4 = PRODUCT_DEFINITION_SHAPE('','',#5);
#5 = PRODUCT_DEFINITION('design','',#6,#9);
#6 = PRODUCT_DEFINITION_FORMATION('','',#7);
#7 = PRODUCT('Box','Box','',(#8));
#8 = PRODUCT_CONTEXT('',#2,'mechanical');
#9 = PRODUCT_DEFINITION_CONTEXT('part definition',#2,'design');
#10 = ADVANCED_BREP_SHAPE_REPRESENTATION('',(#11,#15),#1589);
#11 = AXIS2_PLACEMENT_3D('',#12,#13,#14);
#12 = CARTESIAN_POINT('',(0.,0.,0.));
#13 = DIRECTION('',(0.,0.,1.));
#14 = DIRECTION('',(1.,0.,-0.));
#15 = MANIFOLD_SOLID_BREP('',#16);
#16 = CLOSED_SHELL('',(#17,#57,#90,#123,#185,#306,#393,#410,#427,#444,
    #456,#481,#513,#537,#562,#586,#611,#705,#730,#747,#778,#803,#827,
    #852,#876,#901,#925,#943,#963,#1034,#1066,#1090,#1115,#1139,#1164,
    #1188,#1213,#1230,#1256,#1273,#1298,#1323,#1348,#1373,#1393,#1413,
    #1433,#1453,#1478,#1503,#1528,#1553,#1562,#1571,#1580));
#17 = ADVANCED_FACE('',(#18),#52,.F.);
#18 = FACE_BOUND('',#19,.F.);
#19 = EDGE_LOOP('',(#20,#30,#38,#46));
#20 = ORIENTED_EDGE('',*,*,#21,.T.);
#21 = EDGE_CURVE('',#22,#24,#26,.T.);
#22 = VERTEX_POINT('',#23);
#23 = CARTESIAN_POINT('',(-79.85,39.67,0.));
#24 = VERTEX_POINT('',#25);
#25 = CARTESIAN_POINT('',(-79.85,39.67,85.));
#26 = LINE('',#27,#28);
#27 = CARTESIAN_POINT('',(-79.85,39.67,0.));
#28 = VECTOR('',#29,1.);
#29 = DIRECTION('',(0.,0.,1.));
#30 = ORIENTED_EDGE('',*,*,#31,.T.);
#31 = EDGE_CURVE('',#24,#32,#34,.T.);
#32 = VERTEX_POINT('',#33);
#33 = CARTESIAN_POINT('',(-79.85,-39.67,85.));
#34 = LINE('',#35,#36);
#35 = CARTESIAN_POINT('',(-79.85,39.67,85.));
#36 = VECTOR('',#37,1.);
#37 = DIRECTION('',(0.,-1.,0.));
#38 = ORIENTED_EDGE('',*,*,#39,.F.);
#39 = EDGE_CURVE('',#40,#32,#42,.T.);
#40 = VERTEX_POINT('',#41);
#41 = CARTESIAN_POINT('',(-79.85,-39.67,0.));
#42 = LINE('',#43,#44);
#43 = CARTESIAN_POINT('',(-79.85,-39.67,0.));
#44 = VECTOR('',#45,1.);
#45 = DIRECTION('',(0.,0.,1.));
#46 = ORIENTED_EDGE('',*,*,#47,.F.);
#47 = EDGE_CURVE('',#22,#40,#48,.T.);
#48 = LINE('',#49,#50);
#49 = CARTESIAN_POINT('',(-79.85,39.67,0.));
#50 = VECTOR('',#51,1.);
#51 = DIRECTION('',(0.,-1.,0.));
#52 = PLANE('',#53);
#53 = AXIS2_PLACEMENT_3D('',#54,#55,#56);
#54 = CARTESIAN_POINT('',(-79.85,39.67,0.));
#55 = DIRECTION('',(1.,0.,0.));
#56 = DIRECTION('',(0.,-1.,0.));
#57 = ADVANCED_FACE('',(#58),#85,.T.);
#58 = FACE_BOUND('',#59,.F.);
#59 = EDGE_LOOP('',(#60,#70,#77,#78));
#60 = ORIENTED_EDGE('',*,*,#61,.T.);
#61 = EDGE_CURVE('',#62,#64,#66,.T.);
#62 = VERTEX_POINT('',#63);
#63 = CARTESIAN_POINT('',(-72.85,46.67,0.));
#64 = VERTEX_POINT('',#65);
#65 = CARTESIAN_POINT('',(-72.85,46.67,85.));
#66 = LINE('',#67,#68);
#67 = CARTESIAN_POINT('',(-72.85,46.67,0.));
#68 = VECTOR('',#69,1.);
#69 = DIRECTION('',(0.,0.,1.));
#70 = ORIENTED_EDGE('',*,*,#71,.T.);
#71 = EDGE_CURVE('',#64,#24,#72,.T.);
#72 = CIRCLE('',#73,7.);
#73 = AXIS2_PLACEMENT_3D('',#74,#75,#76);
#74 = CARTESIAN_POINT('',(-72.85,39.67,85.));
#75 = DIRECTION('',(0.,0.,1.));
#76 = DIRECTION('',(1.,0.,0.));
#77 = ORIENTED_EDGE('',*,*,#21,.F.);
#78 = ORIENTED_EDGE('',*,*,#79,.F.);
#79 = EDGE_CURVE('',#62,#22,#80,.T.);
#80 = CIRCLE('',#81,7.);
#81 = AXIS2_PLACEMENT_3D('',#82,#83,#84);
#82 = CARTESIAN_POINT('',(-72.85,39.67,0.));
#83 = DIRECTION('',(0.,0.,1.));
#84 = DIRECTION('',(1.,0.,0.));
#85 = CYLINDRICAL_SURFACE('',#86,7.);
#86 = AXIS2_PLACEMENT_3D('',#87,#88,#89);
#87 = CARTESIAN_POINT('',(-72.85,39.67,0.));
#88 = DIRECTION('',(-0.,-0.,-1.));
#89 = DIRECTION('',(1.,0.,0.));
#90 = ADVANCED_FACE('',(#91),#118,.T.);
#91 = FACE_BOUND('',#92,.F.);
#92 = EDGE_LOOP('',(#93,#94,#103,#111));
#93 = ORIENTED_EDGE('',*,*,#39,.T.);
#94 = ORIENTED_EDGE('',*,*,#95,.T.);
#95 = EDGE_CURVE('',#32,#96,#98,.T.);
#96 = VERTEX_POINT('',#97);
#97 = CARTESIAN_POINT('',(-72.85,-46.67,85.));
#98 = CIRCLE('',#99,7.);
#99 = AXIS2_PLACEMENT_3D('',#100,#101,#102);
#100 = CARTESIAN_POINT('',(-72.85,-39.67,85.));
#101 = DIRECTION('',(0.,0.,1.));
#102 = DIRECTION('',(1.,0.,0.));
#103 = ORIENTED_EDGE('',*,*,#104,.F.);
#104 = EDGE_CURVE('',#105,#96,#107,.T.);
#105 = VERTEX_POINT('',#106);
#106 = CARTESIAN_POINT('',(-72.85,-46.67,0.));
#107 = LINE('',#108,#109);
#108 = CARTESIAN_POINT('',(-72.85,-46.67,0.));
#109 = VECTOR('',#110,1.);
#110 = DIRECTION('',(0.,0.,1.));
#111 = ORIENTED_EDGE('',*,*,#112,.F.);
#112 = EDGE_CURVE('',#40,#105,#113,.T.);
#113 = CIRCLE('',#114,7.);
#114 = AXIS2_PLACEMENT_3D('',#115,#116,#117);
#115 = CARTESIAN_POINT('',(-72.85,-39.67,0.));
#116 = DIRECTION('',(0.,0.,1.));
#117 = DIRECTION('',(1.,0.,0.));
#118 = CYLINDRICAL_SURFACE('',#119,7.);
#119 = AXIS2_PLACEMENT_3D('',#120,#121,#122);
#120 = CARTESIAN_POINT('',(-72.85,-39.67,0.));
#121 = DIRECTION('',(-0.,-0.,-1.));
#122 = DIRECTION('',(1.,0.,0.));
#123 = ADVANCED_FACE('',(#124,#169),#180,.F.);
#124 = FACE_BOUND('',#125,.F.);
#125 = EDGE_LOOP('',(#126,#127,#128,#136,#145,#153,#162,#168));
#126 = ORIENTED_EDGE('',*,*,#47,.T.);
#127 = ORIENTED_EDGE('',*,*,#112,.T.);
#128 = ORIENTED_EDGE('',*,*,#129,.T.);
#129 = EDGE_CURVE('',#105,#130,#132,.T.);
#130 = VERTEX_POINT('',#131);
#131 = CARTESIAN_POINT('',(72.85,-46.67,0.));
#132 = LINE('',#133,#134);
#133 = CARTESIAN_POINT('',(-72.85,-46.67,0.));
#134 = VECTOR('',#135,1.);
#135 = DIRECTION('',(1.,0.,0.));
#136 = ORIENTED_EDGE('',*,*,#137,.T.);
#137 = EDGE_CURVE('',#130,#138,#140,.T.);
#138 = VERTEX_POINT('',#139);
#139 = CARTESIAN_POINT('',(79.85,-39.67,0.));
#140 = CIRCLE('',#141,7.);
#141 = AXIS2_PLACEMENT_3D('',#142,#143,#144);
#142 = CARTESIAN_POINT('',(72.85,-39.67,0.));
#143 = DIRECTION('',(0.,0.,1.));
#144 = DIRECTION('',(1.,0.,0.));
#145 = ORIENTED_EDGE('',*,*,#146,.T.);
#146 = EDGE_CURVE('',#138,#147,#149,.T.);
#147 = VERTEX_POINT('',#148);
#148 = CARTESIAN_POINT('',(79.85,39.67,0.));
#149 = LINE('',#150,#151);
#150 = CARTESIAN_POINT('',(79.85,-39.67,0.));
#151 = VECTOR('',#152,1.);
#152 = DIRECTION('',(0.,1.,0.));
#153 = ORIENTED_EDGE('',*,*,#154,.T.);
#154 = EDGE_CURVE('',#147,#155,#157,.T.);
#155 = VERTEX_POINT('',#156);
#156 = CARTESIAN_POINT('',(72.85,46.67,0.));
#157 = CIRCLE('',#158,7.);
#158 = AXIS2_PLACEMENT_3D('',#159,#160,#161);
#159 = CARTESIAN_POINT('',(72.85,39.67,0.));
#160 = DIRECTION('',(0.,0.,1.));
#161 = DIRECTION('',(1.,0.,0.));
#162 = ORIENTED_EDGE('',*,*,#163,.T.);
#163 = EDGE_CURVE('',#155,#62,#164,.T.);
#164 = LINE('',#165,#166);
#165 = CARTESIAN_POINT('',(72.85,46.67,0.));
#166 = VECTOR('',#167,1.);
#167 = DIRECTION('',(-1.,0.,0.));
#168 = ORIENTED_EDGE('',*,*,#79,.T.);
#169 = FACE_BOUND('',#170,.F.);
#170 = EDGE_LOOP('',(#171));
#171 = ORIENTED_EDGE('',*,*,#172,.T.);
#172 = EDGE_CURVE('',#173,#173,#175,.T.);
#173 = VERTEX_POINT('',#174);
#174 = CARTESIAN_POINT('',(-3.,-31.67,0.));
#175 = CIRCLE('',#176,3.);
#176 = AXIS2_PLACEMENT_3D('',#177,#178,#179);
#177 = CARTESIAN_POINT('',(0.,-31.67,0.));
#178 = DIRECTION('',(0.,0.,-1.));
#179 = DIRECTION('',(-1.,0.,0.));
#180 = PLANE('',#181);
#181 = AXIS2_PLACEMENT_3D('',#182,#183,#184);
#182 = CARTESIAN_POINT('',(-9.2E-16,-2.45E-15,0.));
#183 = DIRECTION('',(0.,0.,1.));
#184 = DIRECTION('',(1.,0.,0.));
#185 = ADVANCED_FACE('',(#186,#231),#301,.T.);
#186 = FACE_BOUND('',#187,.T.);
#187 = EDGE_LOOP('',(#188,#189,#190,#198,#207,#215,#224,#230));
#188 = ORIENTED_EDGE('',*,*,#31,.T.);
#189 = ORIENTED_EDGE('',*,*,#95,.T.);
#190 = ORIENTED_EDGE('',*,*,#191,.T.);
#191 = EDGE_CURVE('',#96,#192,#194,.T.);
#192 = VERTEX_POINT('',#193);
#193 = CARTESIAN_POINT('',(72.85,-46.67,85.));
#194 = LINE('',#195,#196);
#195 = CARTESIAN_POINT('',(-72.85,-46.67,85.));
#196 = VECTOR('',#197,1.);
#197 = DIRECTION('',(1.,0.,0.));
#198 = ORIENTED_EDGE('',*,*,#199,.T.);
#199 = EDGE_CURVE('',#192,#200,#202,.T.);
#200 = VERTEX_POINT('',#201);
#201 = CARTESIAN_POINT('',(79.85,-39.67,85.));
#202 = CIRCLE('',#203,7.);
#203 = AXIS2_PLACEMENT_3D('',#204,#205,#206);
#204 = CARTESIAN_POINT('',(72.85,-39.67,85.));
#205 = DIRECTION('',(0.,0.,1.));
#206 = DIRECTION('',(1.,0.,0.));
#207 = ORIENTED_EDGE('',*,*,#208,.T.);
#208 = EDGE_CURVE('',#200,#209,#211,.T.);
#209 = VERTEX_POINT('',#210);
#210 = CARTESIAN_POINT('',(79.85,39.67,85.));
#211 = LINE('',#212,#213);
#212 = CARTESIAN_POINT('',(79.85,-39.67,85.));
#213 = VECTOR('',#214,1.);
#214 = DIRECTION('',(0.,1.,0.));
#215 = ORIENTED_EDGE('',*,*,#216,.T.);
#216 = EDGE_CURVE('',#209,#217,#219,.T.);
#217 = VERTEX_POINT('',#218);
#218 = CARTESIAN_POINT('',(72.85,46.67,85.));
#219 = CIRCLE('',#220,7.);
#220 = AXIS2_PLACEMENT_3D('',#221,#222,#223);
#221 = CARTESIAN_POINT('',(72.85,39.67,85.));
#222 = DIRECTION('',(0.,0.,1.));
#223 = DIRECTION('',(1.,0.,0.));
#224 = ORIENTED_EDGE('',*,*,#225,.T.);
#225 = EDGE_CURVE('',#217,#64,#226,.T.);
#226 = LINE('',#227,#228);
#227 = CARTESIAN_POINT('',(72.85,46.67,85.));
#228 = VECTOR('',#229,1.);
#229 = DIRECTION('',(-1.,0.,0.));
#230 = ORIENTED_EDGE('',*,*,#71,.T.);
#231 = FACE_BOUND('',#232,.T.);
#232 = EDGE_LOOP('',(#233,#244,#252,#261,#269,#278,#286,#295));
#233 = ORIENTED_EDGE('',*,*,#234,.T.);
#234 = EDGE_CURVE('',#235,#237,#239,.T.);
#235 = VERTEX_POINT('',#236);
#236 = CARTESIAN_POINT('',(-72.85,-41.67,85.));
#237 = VERTEX_POINT('',#238);
#238 = CARTESIAN_POINT('',(-74.85,-39.67,85.));
#239 = CIRCLE('',#240,2.);
#240 = AXIS2_PLACEMENT_3D('',#241,#242,#243);
#241 = CARTESIAN_POINT('',(-72.85,-39.67,85.));
#242 = DIRECTION('',(0.,0.,-1.));
#243 = DIRECTION('',(1.,0.,0.));
#244 = ORIENTED_EDGE('',*,*,#245,.T.);
#245 = EDGE_CURVE('',#237,#246,#248,.T.);
#246 = VERTEX_POINT('',#247);
#247 = CARTESIAN_POINT('',(-74.85,39.67,85.));
#248 = LINE('',#249,#250);
#249 = CARTESIAN_POINT('',(-74.85,19.835,85.));
#250 = VECTOR('',#251,1.);
#251 = DIRECTION('',(0.,1.,0.));
#252 = ORIENTED_EDGE('',*,*,#253,.T.);
#253 = EDGE_CURVE('',#246,#254,#256,.T.);
#254 = VERTEX_POINT('',#255);
#255 = CARTESIAN_POINT('',(-72.85,41.67,85.));
#256 = CIRCLE('',#257,2.);
#257 = AXIS2_PLACEMENT_3D('',#258,#259,#260);
#258 = CARTESIAN_POINT('',(-72.85,39.67,85.));
#259 = DIRECTION('',(0.,0.,-1.));
#260 = DIRECTION('',(1.,0.,0.));
#261 = ORIENTED_EDGE('',*,*,#262,.T.);
#262 = EDGE_CURVE('',#254,#263,#265,.T.);
#263 = VERTEX_POINT('',#264);
#264 = CARTESIAN_POINT('',(72.85,41.67,85.));
#265 = LINE('',#266,#267);
#266 = CARTESIAN_POINT('',(36.425,41.67,85.));
#267 = VECTOR('',#268,1.);
#268 = DIRECTION('',(1.,0.,0.));
#269 = ORIENTED_EDGE('',*,*,#270,.T.);
#270 = EDGE_CURVE('',#263,#271,#273,.T.);
#271 = VERTEX_POINT('',#272);
#272 = CARTESIAN_POINT('',(74.85,39.67,85.));
#273 = CIRCLE('',#274,2.);
#274 = AXIS2_PLACEMENT_3D('',#275,#276,#277);
#275 = CARTESIAN_POINT('',(72.85,39.67,85.));
#276 = DIRECTION('',(0.,0.,-1.));
#277 = DIRECTION('',(1.,0.,0.));
#278 = ORIENTED_EDGE('',*,*,#279,.T.);
#279 = EDGE_CURVE('',#271,#280,#282,.T.);
#280 = VERTEX_POINT('',#281);
#281 = CARTESIAN_POINT('',(74.85,-39.67,85.));
#282 = LINE('',#283,#284);
#283 = CARTESIAN_POINT('',(74.85,-19.835,85.));
#284 = VECTOR('',#285,1.);
#285 = DIRECTION('',(0.,-1.,0.));
#286 = ORIENTED_EDGE('',*,*,#287,.T.);
#287 = EDGE_CURVE('',#280,#288,#290,.T.);
#288 = VERTEX_POINT('',#289);
#289 = CARTESIAN_POINT('',(72.85,-41.67,85.));
#290 = CIRCLE('',#291,2.);
#291 = AXIS2_PLACEMENT_3D('',#292,#293,#294);
#292 = CARTESIAN_POINT('',(72.85,-39.67,85.));
#293 = DIRECTION('',(0.,0.,-1.));
#294 = DIRECTION('',(1.,0.,0.));
#295 = ORIENTED_EDGE('',*,*,#296,.T.);
#296 = EDGE_CURVE('',#288,#235,#297,.T.);
#297 = LINE('',#298,#299);
#298 = CARTESIAN_POINT('',(-36.425,-41.67,85.));
#299 = VECTOR('',#300,1.);
#300 = DIRECTION('',(-1.,0.,0.));
#301 = PLANE('',#302);
#302 = AXIS2_PLACEMENT_3D('',#303,#304,#305);
#303 = CARTESIAN_POINT('',(-9.2E-16,-2.45E-15,85.));
#304 = DIRECTION('',(0.,0.,1.));
#305 = DIRECTION('',(1.,0.,0.));
#306 = ADVANCED_FACE('',(#307,#318),#388,.F.);
#307 = FACE_BOUND('',#308,.F.);
#308 = EDGE_LOOP('',(#309,#315,#316,#317));
#309 = ORIENTED_EDGE('',*,*,#310,.T.);
#310 = EDGE_CURVE('',#155,#217,#311,.T.);
#311 = LINE('',#312,#313);
#312 = CARTESIAN_POINT('',(72.85,46.67,0.));
#313 = VECTOR('',#314,1.);
#314 = DIRECTION('',(0.,0.,1.));
#315 = ORIENTED_EDGE('',*,*,#225,.T.);
#316 = ORIENTED_EDGE('',*,*,#61,.F.);
#317 = ORIENTED_EDGE('',*,*,#163,.F.);
#318 = FACE_BOUND('',#319,.F.);
#319 = EDGE_LOOP('',(#320,#330,#339,#347,#356,#364,#373,#381));
#320 = ORIENTED_EDGE('',*,*,#321,.F.);
#321 = EDGE_CURVE('',#322,#324,#326,.T.);
#322 = VERTEX_POINT('',#323);
#323 = CARTESIAN_POINT('',(26.325000000001,46.67,69.));
#324 = VERTEX_POINT('',#325);
#325 = CARTESIAN_POINT('',(-26.325,46.67,69.));
#326 = LINE('',#327,#328);
#327 = CARTESIAN_POINT('',(26.325000000001,46.67,69.));
#328 = VECTOR('',#329,1.);
#329 = DIRECTION('',(-1.,0.,-1.62E-15));
#330 = ORIENTED_EDGE('',*,*,#331,.T.);
#331 = EDGE_CURVE('',#322,#332,#334,.T.);
#332 = VERTEX_POINT('',#333);
#333 = CARTESIAN_POINT('',(29.925,46.67,65.400001176462));
#334 = CIRCLE('',#335,3.6);
#335 = AXIS2_PLACEMENT_3D('',#336,#337,#338);
#336 = CARTESIAN_POINT('',(26.325,46.67,65.4));
#337 = DIRECTION('',(0.,1.,-0.));
#338 = DIRECTION('',(-1.,0.,0.));
#339 = ORIENTED_EDGE('',*,*,#340,.T.);
#340 = EDGE_CURVE('',#332,#341,#343,.T.);
#341 = VERTEX_POINT('',#342);
#342 = CARTESIAN_POINT('',(29.925,46.67,15.899999999999));
#343 = LINE('',#344,#345);
#344 = CARTESIAN_POINT('',(29.925,46.67,65.400001176462));
#345 = VECTOR('',#346,1.);
#346 = DIRECTION('',(0.,0.,-1.));
#347 = ORIENTED_EDGE('',*,*,#348,.T.);
#348 = EDGE_CURVE('',#341,#349,#351,.T.);
#349 = VERTEX_POINT('',#350);
#350 = CARTESIAN_POINT('',(26.325001176462,46.67,12.3));
#351 = CIRCLE('',#352,3.6);
#352 = AXIS2_PLACEMENT_3D('',#353,#354,#355);
#353 = CARTESIAN_POINT('',(26.325,46.67,15.9));
#354 = DIRECTION('',(0.,1.,-0.));
#355 = DIRECTION('',(-1.,0.,0.));
#356 = ORIENTED_EDGE('',*,*,#357,.T.);
#357 = EDGE_CURVE('',#349,#358,#360,.T.);
#358 = VERTEX_POINT('',#359);
#359 = CARTESIAN_POINT('',(-26.325,46.67,12.3));
#360 = LINE('',#361,#362);
#361 = CARTESIAN_POINT('',(26.325001176462,46.67,12.3));
#362 = VECTOR('',#363,1.);
#363 = DIRECTION('',(-1.,0.,0.));
#364 = ORIENTED_EDGE('',*,*,#365,.T.);
#365 = EDGE_CURVE('',#358,#366,#368,.T.);
#366 = VERTEX_POINT('',#367);
#367 = CARTESIAN_POINT('',(-29.925,46.67,15.899998823538));
#368 = CIRCLE('',#369,3.6);
#369 = AXIS2_PLACEMENT_3D('',#370,#371,#372);
#370 = CARTESIAN_POINT('',(-26.325,46.67,15.9));
#371 = DIRECTION('',(0.,1.,-0.));
#372 = DIRECTION('',(-1.,0.,0.));
#373 = ORIENTED_EDGE('',*,*,#374,.F.);
#374 = EDGE_CURVE('',#375,#366,#377,.T.);
#375 = VERTEX_POINT('',#376);
#376 = CARTESIAN_POINT('',(-29.925,46.67,65.400001176462));
#377 = LINE('',#378,#379);
#378 = CARTESIAN_POINT('',(-29.925,46.67,65.400001176462));
#379 = VECTOR('',#380,1.);
#380 = DIRECTION('',(-1.72E-15,0.,-1.));
#381 = ORIENTED_EDGE('',*,*,#382,.T.);
#382 = EDGE_CURVE('',#375,#324,#383,.T.);
#383 = CIRCLE('',#384,3.6);
#384 = AXIS2_PLACEMENT_3D('',#385,#386,#387);
#385 = CARTESIAN_POINT('',(-26.325,46.67,65.4));
#386 = DIRECTION('',(0.,1.,-0.));
#387 = DIRECTION('',(-1.,0.,0.));
#388 = PLANE('',#389);
#389 = AXIS2_PLACEMENT_3D('',#390,#391,#392);
#390 = CARTESIAN_POINT('',(72.85,46.67,0.));
#391 = DIRECTION('',(0.,-1.,0.));
#392 = DIRECTION('',(-1.,0.,0.));
#393 = ADVANCED_FACE('',(#394),#405,.F.);
#394 = FACE_BOUND('',#395,.F.);
#395 = EDGE_LOOP('',(#396,#397,#398,#404));
#396 = ORIENTED_EDGE('',*,*,#104,.T.);
#397 = ORIENTED_EDGE('',*,*,#191,.T.);
#398 = ORIENTED_EDGE('',*,*,#399,.F.);
#399 = EDGE_CURVE('',#130,#192,#400,.T.);
#400 = LINE('',#401,#402);
#401 = CARTESIAN_POINT('',(72.85,-46.67,0.));
#402 = VECTOR('',#403,1.);
#403 = DIRECTION('',(0.,0.,1.));
#404 = ORIENTED_EDGE('',*,*,#129,.F.);
#405 = PLANE('',#406);
#406 = AXIS2_PLACEMENT_3D('',#407,#408,#409);
#407 = CARTESIAN_POINT('',(-72.85,-46.67,0.));
#408 = DIRECTION('',(0.,1.,0.));
#409 = DIRECTION('',(1.,0.,0.));
#410 = ADVANCED_FACE('',(#411),#422,.T.);
#411 = FACE_BOUND('',#412,.F.);
#412 = EDGE_LOOP('',(#413,#419,#420,#421));
#413 = ORIENTED_EDGE('',*,*,#414,.T.);
#414 = EDGE_CURVE('',#147,#209,#415,.T.);
#415 = LINE('',#416,#417);
#416 = CARTESIAN_POINT('',(79.85,39.67,0.));
#417 = VECTOR('',#418,1.);
#418 = DIRECTION('',(0.,0.,1.));
#419 = ORIENTED_EDGE('',*,*,#216,.T.);
#420 = ORIENTED_EDGE('',*,*,#310,.F.);
#421 = ORIENTED_EDGE('',*,*,#154,.F.);
#422 = CYLINDRICAL_SURFACE('',#423,7.);
#423 = AXIS2_PLACEMENT_3D('',#424,#425,#426);
#424 = CARTESIAN_POINT('',(72.85,39.67,0.));
#425 = DIRECTION('',(-0.,-0.,-1.));
#426 = DIRECTION('',(1.,0.,0.));
#427 = ADVANCED_FACE('',(#428),#439,.T.);
#428 = FACE_BOUND('',#429,.F.);
#429 = EDGE_LOOP('',(#430,#431,#432,#438));
#430 = ORIENTED_EDGE('',*,*,#399,.T.);
#431 = ORIENTED_EDGE('',*,*,#199,.T.);
#432 = ORIENTED_EDGE('',*,*,#433,.F.);
#433 = EDGE_CURVE('',#138,#200,#434,.T.);
#434 = LINE('',#435,#436);
#435 = CARTESIAN_POINT('',(79.85,-39.67,0.));
#436 = VECTOR('',#437,1.);
#437 = DIRECTION('',(0.,0.,1.));
#438 = ORIENTED_EDGE('',*,*,#137,.F.);
#439 = CYLINDRICAL_SURFACE('',#440,7.);
#440 = AXIS2_PLACEMENT_3D('',#441,#442,#443);
#441 = CARTESIAN_POINT('',(72.85,-39.67,0.));
#442 = DIRECTION('',(-0.,-0.,-1.));
#443 = DIRECTION('',(1.,0.,0.));
#444 = ADVANCED_FACE('',(#445),#451,.F.);
#445 = FACE_BOUND('',#446,.F.);
#446 = EDGE_LOOP('',(#447,#448,#449,#450));
#447 = ORIENTED_EDGE('',*,*,#433,.T.);
#448 = ORIENTED_EDGE('',*,*,#208,.T.);
#449 = ORIENTED_EDGE('',*,*,#414,.F.);
#450 = ORIENTED_EDGE('',*,*,#146,.F.);
#451 = PLANE('',#452);
#452 = AXIS2_PLACEMENT_3D('',#453,#454,#455);
#453 = CARTESIAN_POINT('',(79.85,-39.67,0.));
#454 = DIRECTION('',(-1.,0.,0.));
#455 = DIRECTION('',(0.,1.,0.));
#456 = ADVANCED_FACE('',(#457),#476,.F.);
#457 = FACE_BOUND('',#458,.T.);
#458 = EDGE_LOOP('',(#459,#460,#468,#475));
#459 = ORIENTED_EDGE('',*,*,#172,.T.);
#460 = ORIENTED_EDGE('',*,*,#461,.T.);
#461 = EDGE_CURVE('',#173,#462,#464,.T.);
#462 = VERTEX_POINT('',#463);
#463 = CARTESIAN_POINT('',(-3.,-31.67,3.));
#464 = LINE('',#465,#466);
#465 = CARTESIAN_POINT('',(-3.,-31.67,0.));
#466 = VECTOR('',#467,1.);
#467 = DIRECTION('',(9.E-17,0.,1.));
#468 = ORIENTED_EDGE('',*,*,#469,.T.);
#469 = EDGE_CURVE('',#462,#462,#470,.T.);
#470 = CIRCLE('',#471,3.);
#471 = AXIS2_PLACEMENT_3D('',#472,#473,#474);
#472 = CARTESIAN_POINT('',(0.,-31.67,3.));
#473 = DIRECTION('',(0.,0.,1.));
#474 = DIRECTION('',(-1.,0.,0.));
#475 = ORIENTED_EDGE('',*,*,#461,.F.);
#476 = CYLINDRICAL_SURFACE('',#477,3.);
#477 = AXIS2_PLACEMENT_3D('',#478,#479,#480);
#478 = CARTESIAN_POINT('',(0.,-31.67,0.));
#479 = DIRECTION('',(0.,0.,1.));
#480 = DIRECTION('',(-1.,0.,0.));
#481 = ADVANCED_FACE('',(#482),#508,.F.);
#482 = FACE_BOUND('',#483,.T.);
#483 = EDGE_LOOP('',(#484,#495,#501,#502));
#484 = ORIENTED_EDGE('',*,*,#485,.F.);
#485 = EDGE_CURVE('',#486,#488,#490,.T.);
#486 = VERTEX_POINT('',#487);
#487 = CARTESIAN_POINT('',(-74.85,-39.67,5.));
#488 = VERTEX_POINT('',#489);
#489 = CARTESIAN_POINT('',(-72.85,-41.67,5.));
#490 = CIRCLE('',#491,2.);
#491 = AXIS2_PLACEMENT_3D('',#492,#493,#494);
#492 = CARTESIAN_POINT('',(-72.85,-39.67,5.));
#493 = DIRECTION('',(0.,0.,1.));
#494 = DIRECTION('',(1.,0.,0.));
#495 = ORIENTED_EDGE('',*,*,#496,.T.);
#496 = EDGE_CURVE('',#486,#237,#497,.T.);
#497 = LINE('',#498,#499);
#498 = CARTESIAN_POINT('',(-74.85,-39.67,5.));
#499 = VECTOR('',#500,1.);
#500 = DIRECTION('',(0.,0.,1.));
#501 = ORIENTED_EDGE('',*,*,#234,.F.);
#502 = ORIENTED_EDGE('',*,*,#503,.F.);
#503 = EDGE_CURVE('',#488,#235,#504,.T.);
#504 = LINE('',#505,#506);
#505 = CARTESIAN_POINT('',(-72.85,-41.67,5.));
#506 = VECTOR('',#507,1.);
#507 = DIRECTION('',(0.,0.,1.));
#508 = CYLINDRICAL_SURFACE('',#509,2.);
#509 = AXIS2_PLACEMENT_3D('',#510,#511,#512);
#510 = CARTESIAN_POINT('',(-72.85,-39.67,5.));
#511 = DIRECTION('',(-0.,-0.,-1.));
#512 = DIRECTION('',(1.,0.,0.));
#513 = ADVANCED_FACE('',(#514),#532,.T.);
#514 = FACE_BOUND('',#515,.T.);
#515 = EDGE_LOOP('',(#516,#524,#525,#526));
#516 = ORIENTED_EDGE('',*,*,#517,.F.);
#517 = EDGE_CURVE('',#488,#518,#520,.T.);
#518 = VERTEX_POINT('',#519);
#519 = CARTESIAN_POINT('',(72.85,-41.67,5.));
#520 = LINE('',#521,#522);
#521 = CARTESIAN_POINT('',(-72.85,-41.67,5.));
#522 = VECTOR('',#523,1.);
#523 = DIRECTION('',(1.,0.,0.));
#524 = ORIENTED_EDGE('',*,*,#503,.T.);
#525 = ORIENTED_EDGE('',*,*,#296,.F.);
#526 = ORIENTED_EDGE('',*,*,#527,.F.);
#527 = EDGE_CURVE('',#518,#288,#528,.T.);
#528 = LINE('',#529,#530);
#529 = CARTESIAN_POINT('',(72.85,-41.67,5.));
#530 = VECTOR('',#531,1.);
#531 = DIRECTION('',(0.,0.,1.));
#532 = PLANE('',#533);
#533 = AXIS2_PLACEMENT_3D('',#534,#535,#536);
#534 = CARTESIAN_POINT('',(-72.85,-41.67,5.));
#535 = DIRECTION('',(0.,1.,0.));
#536 = DIRECTION('',(1.,0.,0.));
#537 = ADVANCED_FACE('',(#538),#557,.F.);
#538 = FACE_BOUND('',#539,.T.);
#539 = EDGE_LOOP('',(#540,#549,#550,#551));
#540 = ORIENTED_EDGE('',*,*,#541,.F.);
#541 = EDGE_CURVE('',#518,#542,#544,.T.);
#542 = VERTEX_POINT('',#543);
#543 = CARTESIAN_POINT('',(74.85,-39.67,5.));
#544 = CIRCLE('',#545,2.);
#545 = AXIS2_PLACEMENT_3D('',#546,#547,#548);
#546 = CARTESIAN_POINT('',(72.85,-39.67,5.));
#547 = DIRECTION('',(0.,0.,1.));
#548 = DIRECTION('',(1.,0.,0.));
#549 = ORIENTED_EDGE('',*,*,#527,.T.);
#550 = ORIENTED_EDGE('',*,*,#287,.F.);
#551 = ORIENTED_EDGE('',*,*,#552,.F.);
#552 = EDGE_CURVE('',#542,#280,#553,.T.);
#553 = LINE('',#554,#555);
#554 = CARTESIAN_POINT('',(74.85,-39.67,5.));
#555 = VECTOR('',#556,1.);
#556 = DIRECTION('',(0.,0.,1.));
#557 = CYLINDRICAL_SURFACE('',#558,2.);
#558 = AXIS2_PLACEMENT_3D('',#559,#560,#561);
#559 = CARTESIAN_POINT('',(72.85,-39.67,5.));
#560 = DIRECTION('',(-0.,-0.,-1.));
#561 = DIRECTION('',(1.,0.,0.));
#562 = ADVANCED_FACE('',(#563),#581,.T.);
#563 = FACE_BOUND('',#564,.T.);
#564 = EDGE_LOOP('',(#565,#573,#574,#575));
#565 = ORIENTED_EDGE('',*,*,#566,.F.);
#566 = EDGE_CURVE('',#542,#567,#569,.T.);
#567 = VERTEX_POINT('',#568);
#568 = CARTESIAN_POINT('',(74.85,39.67,5.));
#569 = LINE('',#570,#571);
#570 = CARTESIAN_POINT('',(74.85,-39.67,5.));
#571 = VECTOR('',#572,1.);
#572 = DIRECTION('',(0.,1.,0.));
#573 = ORIENTED_EDGE('',*,*,#552,.T.);
#574 = ORIENTED_EDGE('',*,*,#279,.F.);
#575 = ORIENTED_EDGE('',*,*,#576,.F.);
#576 = EDGE_CURVE('',#567,#271,#577,.T.);
#577 = LINE('',#578,#579);
#578 = CARTESIAN_POINT('',(74.85,39.67,5.));
#579 = VECTOR('',#580,1.);
#580 = DIRECTION('',(0.,0.,1.));
#581 = PLANE('',#582);
#582 = AXIS2_PLACEMENT_3D('',#583,#584,#585);
#583 = CARTESIAN_POINT('',(74.85,-39.67,5.));
#584 = DIRECTION('',(-1.,0.,0.));
#585 = DIRECTION('',(0.,1.,0.));
#586 = ADVANCED_FACE('',(#587),#606,.F.);
#587 = FACE_BOUND('',#588,.T.);
#588 = EDGE_LOOP('',(#589,#598,#599,#600));
#589 = ORIENTED_EDGE('',*,*,#590,.F.);
#590 = EDGE_CURVE('',#567,#591,#593,.T.);
#591 = VERTEX_POINT('',#592);
#592 = CARTESIAN_POINT('',(72.85,41.67,5.));
#593 = CIRCLE('',#594,2.);
#594 = AXIS2_PLACEMENT_3D('',#595,#596,#597);
#595 = CARTESIAN_POINT('',(72.85,39.67,5.));
#596 = DIRECTION('',(0.,0.,1.));
#597 = DIRECTION('',(1.,0.,0.));
#598 = ORIENTED_EDGE('',*,*,#576,.T.);
#599 = ORIENTED_EDGE('',*,*,#270,.F.);
#600 = ORIENTED_EDGE('',*,*,#601,.F.);
#601 = EDGE_CURVE('',#591,#263,#602,.T.);
#602 = LINE('',#603,#604);
#603 = CARTESIAN_POINT('',(72.85,41.67,5.));
#604 = VECTOR('',#605,1.);
#605 = DIRECTION('',(0.,0.,1.));
#606 = CYLINDRICAL_SURFACE('',#607,2.);
#607 = AXIS2_PLACEMENT_3D('',#608,#609,#610);
#608 = CARTESIAN_POINT('',(72.85,39.67,5.));
#609 = DIRECTION('',(-0.,-0.,-1.));
#610 = DIRECTION('',(1.,0.,0.));
#611 = ADVANCED_FACE('',(#612,#630),#700,.T.);
#612 = FACE_BOUND('',#613,.T.);
#613 = EDGE_LOOP('',(#614,#622,#623,#624));
#614 = ORIENTED_EDGE('',*,*,#615,.F.);
#615 = EDGE_CURVE('',#591,#616,#618,.T.);
#616 = VERTEX_POINT('',#617);
#617 = CARTESIAN_POINT('',(-72.85,41.67,5.));
#618 = LINE('',#619,#620);
#619 = CARTESIAN_POINT('',(72.85,41.67,5.));
#620 = VECTOR('',#621,1.);
#621 = DIRECTION('',(-1.,0.,0.));
#622 = ORIENTED_EDGE('',*,*,#601,.T.);
#623 = ORIENTED_EDGE('',*,*,#262,.F.);
#624 = ORIENTED_EDGE('',*,*,#625,.F.);
#625 = EDGE_CURVE('',#616,#254,#626,.T.);
#626 = LINE('',#627,#628);
#627 = CARTESIAN_POINT('',(-72.85,41.67,5.));
#628 = VECTOR('',#629,1.);
#629 = DIRECTION('',(0.,0.,1.));
#630 = FACE_BOUND('',#631,.T.);
#631 = EDGE_LOOP('',(#632,#643,#651,#660,#668,#677,#685,#694));
#632 = ORIENTED_EDGE('',*,*,#633,.T.);
#633 = EDGE_CURVE('',#634,#636,#638,.T.);
#634 = VERTEX_POINT('',#635);
#635 = CARTESIAN_POINT('',(32.5,41.67,10.109999588238));
#636 = VERTEX_POINT('',#637);
#637 = CARTESIAN_POINT('',(31.24,41.67,8.85));
#638 = CIRCLE('',#639,1.26);
#639 = AXIS2_PLACEMENT_3D('',#640,#641,#642);
#640 = CARTESIAN_POINT('',(31.24,41.67,10.11));
#641 = DIRECTION('',(0.,1.,-0.));
#642 = DIRECTION('',(-1.,0.,0.));
#643 = ORIENTED_EDGE('',*,*,#644,.T.);
#644 = EDGE_CURVE('',#636,#645,#647,.T.);
#645 = VERTEX_POINT('',#646);
#646 = CARTESIAN_POINT('',(-31.24,41.67,8.85));
#647 = LINE('',#648,#649);
#648 = CARTESIAN_POINT('',(31.24,41.67,8.85));
#649 = VECTOR('',#650,1.);
#650 = DIRECTION('',(-1.,0.,0.));
#651 = ORIENTED_EDGE('',*,*,#652,.T.);
#652 = EDGE_CURVE('',#645,#653,#655,.T.);
#653 = VERTEX_POINT('',#654);
#654 = CARTESIAN_POINT('',(-32.5,41.67,10.109999588238));
#655 = CIRCLE('',#656,1.26);
#656 = AXIS2_PLACEMENT_3D('',#657,#658,#659);
#657 = CARTESIAN_POINT('',(-31.24,41.67,10.11));
#658 = DIRECTION('',(0.,1.,-0.));
#659 = DIRECTION('',(-1.,0.,0.));
#660 = ORIENTED_EDGE('',*,*,#661,.F.);
#661 = EDGE_CURVE('',#662,#653,#664,.T.);
#662 = VERTEX_POINT('',#663);
#663 = CARTESIAN_POINT('',(-32.5,41.67,71.190000411762));
#664 = LINE('',#665,#666);
#665 = CARTESIAN_POINT('',(-32.5,41.67,71.190000411762));
#666 = VECTOR('',#667,1.);
#667 = DIRECTION('',(-1.2E-16,0.,-1.));
#668 = ORIENTED_EDGE('',*,*,#669,.T.);
#669 = EDGE_CURVE('',#662,#670,#672,.T.);
#670 = VERTEX_POINT('',#671);
#671 = CARTESIAN_POINT('',(-31.24,41.67,72.45));
#672 = CIRCLE('',#673,1.26);
#673 = AXIS2_PLACEMENT_3D('',#674,#675,#676);
#674 = CARTESIAN_POINT('',(-31.24,41.67,71.19));
#675 = DIRECTION('',(0.,1.,-0.));
#676 = DIRECTION('',(-1.,0.,0.));
#677 = ORIENTED_EDGE('',*,*,#678,.F.);
#678 = EDGE_CURVE('',#679,#670,#681,.T.);
#679 = VERTEX_POINT('',#680);
#680 = CARTESIAN_POINT('',(31.24,41.67,72.45));
#681 = LINE('',#682,#683);
#682 = CARTESIAN_POINT('',(31.24,41.67,72.45));
#683 = VECTOR('',#684,1.);
#684 = DIRECTION('',(-1.,0.,0.));
#685 = ORIENTED_EDGE('',*,*,#686,.T.);
#686 = EDGE_CURVE('',#679,#687,#689,.T.);
#687 = VERTEX_POINT('',#688);
#688 = CARTESIAN_POINT('',(32.5,41.67,71.190000411762));
#689 = CIRCLE('',#690,1.26);
#690 = AXIS2_PLACEMENT_3D('',#691,#692,#693);
#691 = CARTESIAN_POINT('',(31.24,41.67,71.19));
#692 = DIRECTION('',(0.,1.,-0.));
#693 = DIRECTION('',(-1.,0.,0.));
#694 = ORIENTED_EDGE('',*,*,#695,.F.);
#695 = EDGE_CURVE('',#634,#687,#696,.T.);
#696 = LINE('',#697,#698);
#697 = CARTESIAN_POINT('',(32.5,41.67,10.109999588238));
#698 = VECTOR('',#699,1.);
#699 = DIRECTION('',(1.2E-16,0.,1.));
#700 = PLANE('',#701);
#701 = AXIS2_PLACEMENT_3D('',#702,#703,#704);
#702 = CARTESIAN_POINT('',(72.85,41.67,5.));
#703 = DIRECTION('',(0.,-1.,0.));
#704 = DIRECTION('',(-1.,0.,0.));
#705 = ADVANCED_FACE('',(#706),#725,.F.);
#706 = FACE_BOUND('',#707,.T.);
#707 = EDGE_LOOP('',(#708,#717,#718,#719));
#708 = ORIENTED_EDGE('',*,*,#709,.F.);
#709 = EDGE_CURVE('',#616,#710,#712,.T.);
#710 = VERTEX_POINT('',#711);
#711 = CARTESIAN_POINT('',(-74.85,39.67,5.));
#712 = CIRCLE('',#713,2.);
#713 = AXIS2_PLACEMENT_3D('',#714,#715,#716);
#714 = CARTESIAN_POINT('',(-72.85,39.67,5.));
#715 = DIRECTION('',(0.,0.,1.));
#716 = DIRECTION('',(1.,0.,0.));
#717 = ORIENTED_EDGE('',*,*,#625,.T.);
#718 = ORIENTED_EDGE('',*,*,#253,.F.);
#719 = ORIENTED_EDGE('',*,*,#720,.F.);
#720 = EDGE_CURVE('',#710,#246,#721,.T.);
#721 = LINE('',#722,#723);
#722 = CARTESIAN_POINT('',(-74.85,39.67,5.));
#723 = VECTOR('',#724,1.);
#724 = DIRECTION('',(0.,0.,1.));
#725 = CYLINDRICAL_SURFACE('',#726,2.);
#726 = AXIS2_PLACEMENT_3D('',#727,#728,#729);
#727 = CARTESIAN_POINT('',(-72.85,39.67,5.));
#728 = DIRECTION('',(-0.,-0.,-1.));
#729 = DIRECTION('',(1.,0.,0.));
#730 = ADVANCED_FACE('',(#731),#742,.T.);
#731 = FACE_BOUND('',#732,.T.);
#732 = EDGE_LOOP('',(#733,#739,#740,#741));
#733 = ORIENTED_EDGE('',*,*,#734,.F.);
#734 = EDGE_CURVE('',#710,#486,#735,.T.);
#735 = LINE('',#736,#737);
#736 = CARTESIAN_POINT('',(-74.85,39.67,5.));
#737 = VECTOR('',#738,1.);
#738 = DIRECTION('',(0.,-1.,0.));
#739 = ORIENTED_EDGE('',*,*,#720,.T.);
#740 = ORIENTED_EDGE('',*,*,#245,.F.);
#741 = ORIENTED_EDGE('',*,*,#496,.F.);
#742 = PLANE('',#743);
#743 = AXIS2_PLACEMENT_3D('',#744,#745,#746);
#744 = CARTESIAN_POINT('',(-74.85,39.67,5.));
#745 = DIRECTION('',(1.,0.,0.));
#746 = DIRECTION('',(0.,-1.,0.));
#747 = ADVANCED_FACE('',(#748),#773,.T.);
#748 = FACE_BOUND('',#749,.T.);
#749 = EDGE_LOOP('',(#750,#758,#766,#772));
#750 = ORIENTED_EDGE('',*,*,#751,.T.);
#751 = EDGE_CURVE('',#322,#752,#754,.T.);
#752 = VERTEX_POINT('',#753);
#753 = CARTESIAN_POINT('',(26.325000000001,43.17,69.));
#754 = LINE('',#755,#756);
#755 = CARTESIAN_POINT('',(26.325000000001,46.67,69.));
#756 = VECTOR('',#757,1.);
#757 = DIRECTION('',(0.,-1.,2.2E-16));
#758 = ORIENTED_EDGE('',*,*,#759,.T.);
#759 = EDGE_CURVE('',#752,#760,#762,.T.);
#760 = VERTEX_POINT('',#761);
#761 = CARTESIAN_POINT('',(-26.325,43.17,69.));
#762 = LINE('',#763,#764);
#763 = CARTESIAN_POINT('',(26.325000000001,43.17,69.));
#764 = VECTOR('',#765,1.);
#765 = DIRECTION('',(-1.,0.,-1.62E-15));
#766 = ORIENTED_EDGE('',*,*,#767,.F.);
#767 = EDGE_CURVE('',#324,#760,#768,.T.);
#768 = LINE('',#769,#770);
#769 = CARTESIAN_POINT('',(-26.325,46.67,69.));
#770 = VECTOR('',#771,1.);
#771 = DIRECTION('',(0.,-1.,2.2E-16));
#772 = ORIENTED_EDGE('',*,*,#321,.F.);
#773 = PLANE('',#774);
#774 = AXIS2_PLACEMENT_3D('',#775,#776,#777);
#775 = CARTESIAN_POINT('',(26.325000000001,46.67,69.));
#776 = DIRECTION('',(1.62E-15,-2.2E-16,-1.));
#777 = DIRECTION('',(-1.,0.,-1.62E-15));
#778 = ADVANCED_FACE('',(#779),#798,.F.);
#779 = FACE_BOUND('',#780,.F.);
#780 = EDGE_LOOP('',(#781,#789,#796,#797));
#781 = ORIENTED_EDGE('',*,*,#782,.T.);
#782 = EDGE_CURVE('',#375,#783,#785,.T.);
#783 = VERTEX_POINT('',#784);
#784 = CARTESIAN_POINT('',(-29.925,43.17,65.400001176462));
#785 = LINE('',#786,#787);
#786 = CARTESIAN_POINT('',(-29.925,46.67,65.400001176462));
#787 = VECTOR('',#788,1.);
#788 = DIRECTION('',(0.,-1.,2.2E-16));
#789 = ORIENTED_EDGE('',*,*,#790,.T.);
#790 = EDGE_CURVE('',#783,#760,#791,.T.);
#791 = CIRCLE('',#792,3.6);
#792 = AXIS2_PLACEMENT_3D('',#793,#794,#795);
#793 = CARTESIAN_POINT('',(-26.325,43.17,65.4));
#794 = DIRECTION('',(0.,1.,-0.));
#795 = DIRECTION('',(-1.,0.,0.));
#796 = ORIENTED_EDGE('',*,*,#767,.F.);
#797 = ORIENTED_EDGE('',*,*,#382,.F.);
#798 = CYLINDRICAL_SURFACE('',#799,3.6);
#799 = AXIS2_PLACEMENT_3D('',#800,#801,#802);
#800 = CARTESIAN_POINT('',(-26.325,46.67,65.4));
#801 = DIRECTION('',(0.,1.,-2.2E-16));
#802 = DIRECTION('',(-1.,0.,0.));
#803 = ADVANCED_FACE('',(#804),#822,.T.);
#804 = FACE_BOUND('',#805,.T.);
#805 = EDGE_LOOP('',(#806,#807,#815,#821));
#806 = ORIENTED_EDGE('',*,*,#782,.T.);
#807 = ORIENTED_EDGE('',*,*,#808,.T.);
#808 = EDGE_CURVE('',#783,#809,#811,.T.);
#809 = VERTEX_POINT('',#810);
#810 = CARTESIAN_POINT('',(-29.925,43.17,15.899998823538));
#811 = LINE('',#812,#813);
#812 = CARTESIAN_POINT('',(-29.925,43.17,65.400001176462));
#813 = VECTOR('',#814,1.);
#814 = DIRECTION('',(-1.72E-15,0.,-1.));
#815 = ORIENTED_EDGE('',*,*,#816,.F.);
#816 = EDGE_CURVE('',#366,#809,#817,.T.);
#817 = LINE('',#818,#819);
#818 = CARTESIAN_POINT('',(-29.925,46.67,15.899998823538));
#819 = VECTOR('',#820,1.);
#820 = DIRECTION('',(0.,-1.,2.2E-16));
#821 = ORIENTED_EDGE('',*,*,#374,.F.);
#822 = PLANE('',#823);
#823 = AXIS2_PLACEMENT_3D('',#824,#825,#826);
#824 = CARTESIAN_POINT('',(-29.925,46.67,65.400001176462));
#825 = DIRECTION('',(1.,0.,-1.72E-15));
#826 = DIRECTION('',(-1.72E-15,-2.2E-16,-1.));
#827 = ADVANCED_FACE('',(#828),#847,.F.);
#828 = FACE_BOUND('',#829,.F.);
#829 = EDGE_LOOP('',(#830,#838,#845,#846));
#830 = ORIENTED_EDGE('',*,*,#831,.T.);
#831 = EDGE_CURVE('',#358,#832,#834,.T.);
#832 = VERTEX_POINT('',#833);
#833 = CARTESIAN_POINT('',(-26.325,43.17,12.3));
#834 = LINE('',#835,#836);
#835 = CARTESIAN_POINT('',(-26.325,46.67,12.3));
#836 = VECTOR('',#837,1.);
#837 = DIRECTION('',(0.,-1.,2.2E-16));
#838 = ORIENTED_EDGE('',*,*,#839,.T.);
#839 = EDGE_CURVE('',#832,#809,#840,.T.);
#840 = CIRCLE('',#841,3.6);
#841 = AXIS2_PLACEMENT_3D('',#842,#843,#844);
#842 = CARTESIAN_POINT('',(-26.325,43.17,15.9));
#843 = DIRECTION('',(0.,1.,-0.));
#844 = DIRECTION('',(-1.,0.,0.));
#845 = ORIENTED_EDGE('',*,*,#816,.F.);
#846 = ORIENTED_EDGE('',*,*,#365,.F.);
#847 = CYLINDRICAL_SURFACE('',#848,3.6);
#848 = AXIS2_PLACEMENT_3D('',#849,#850,#851);
#849 = CARTESIAN_POINT('',(-26.325,46.67,15.9));
#850 = DIRECTION('',(0.,1.,-2.2E-16));
#851 = DIRECTION('',(-1.,0.,0.));
#852 = ADVANCED_FACE('',(#853),#871,.F.);
#853 = FACE_BOUND('',#854,.F.);
#854 = EDGE_LOOP('',(#855,#863,#869,#870));
#855 = ORIENTED_EDGE('',*,*,#856,.T.);
#856 = EDGE_CURVE('',#349,#857,#859,.T.);
#857 = VERTEX_POINT('',#858);
#858 = CARTESIAN_POINT('',(26.325001176462,43.17,12.3));
#859 = LINE('',#860,#861);
#860 = CARTESIAN_POINT('',(26.325001176462,46.67,12.3));
#861 = VECTOR('',#862,1.);
#862 = DIRECTION('',(0.,-1.,2.2E-16));
#863 = ORIENTED_EDGE('',*,*,#864,.T.);
#864 = EDGE_CURVE('',#857,#832,#865,.T.);
#865 = LINE('',#866,#867);
#866 = CARTESIAN_POINT('',(26.325001176462,43.17,12.3));
#867 = VECTOR('',#868,1.);
#868 = DIRECTION('',(-1.,0.,0.));
#869 = ORIENTED_EDGE('',*,*,#831,.F.);
#870 = ORIENTED_EDGE('',*,*,#357,.F.);
#871 = PLANE('',#872);
#872 = AXIS2_PLACEMENT_3D('',#873,#874,#875);
#873 = CARTESIAN_POINT('',(26.325001176462,46.67,12.3));
#874 = DIRECTION('',(-0.,-2.2E-16,-1.));
#875 = DIRECTION('',(-1.,0.,0.));
#876 = ADVANCED_FACE('',(#877),#896,.F.);
#877 = FACE_BOUND('',#878,.F.);
#878 = EDGE_LOOP('',(#879,#887,#894,#895));
#879 = ORIENTED_EDGE('',*,*,#880,.T.);
#880 = EDGE_CURVE('',#341,#881,#883,.T.);
#881 = VERTEX_POINT('',#882);
#882 = CARTESIAN_POINT('',(29.925,43.17,15.899999999999));
#883 = LINE('',#884,#885);
#884 = CARTESIAN_POINT('',(29.925,46.67,15.899999999999));
#885 = VECTOR('',#886,1.);
#886 = DIRECTION('',(0.,-1.,2.2E-16));
#887 = ORIENTED_EDGE('',*,*,#888,.T.);
#888 = EDGE_CURVE('',#881,#857,#889,.T.);
#889 = CIRCLE('',#890,3.6);
#890 = AXIS2_PLACEMENT_3D('',#891,#892,#893);
#891 = CARTESIAN_POINT('',(26.325,43.17,15.9));
#892 = DIRECTION('',(0.,1.,-0.));
#893 = DIRECTION('',(-1.,0.,0.));
#894 = ORIENTED_EDGE('',*,*,#856,.F.);
#895 = ORIENTED_EDGE('',*,*,#348,.F.);
#896 = CYLINDRICAL_SURFACE('',#897,3.6);
#897 = AXIS2_PLACEMENT_3D('',#898,#899,#900);
#898 = CARTESIAN_POINT('',(26.325,46.67,15.9));
#899 = DIRECTION('',(0.,1.,-2.2E-16));
#900 = DIRECTION('',(-1.,0.,0.));
#901 = ADVANCED_FACE('',(#902),#920,.F.);
#902 = FACE_BOUND('',#903,.F.);
#903 = EDGE_LOOP('',(#904,#912,#918,#919));
#904 = ORIENTED_EDGE('',*,*,#905,.T.);
#905 = EDGE_CURVE('',#332,#906,#908,.T.);
#906 = VERTEX_POINT('',#907);
#907 = CARTESIAN_POINT('',(29.925,43.17,65.400001176462));
#908 = LINE('',#909,#910);
#909 = CARTESIAN_POINT('',(29.925,46.67,65.400001176462));
#910 = VECTOR('',#911,1.);
#911 = DIRECTION('',(0.,-1.,2.2E-16));
#912 = ORIENTED_EDGE('',*,*,#913,.T.);
#913 = EDGE_CURVE('',#906,#881,#914,.T.);
#914 = LINE('',#915,#916);
#915 = CARTESIAN_POINT('',(29.925,43.17,65.400001176462));
#916 = VECTOR('',#917,1.);
#917 = DIRECTION('',(0.,0.,-1.));
#918 = ORIENTED_EDGE('',*,*,#880,.F.);
#919 = ORIENTED_EDGE('',*,*,#340,.F.);
#920 = PLANE('',#921);
#921 = AXIS2_PLACEMENT_3D('',#922,#923,#924);
#922 = CARTESIAN_POINT('',(29.925,46.67,65.400001176462));
#923 = DIRECTION('',(1.,0.,0.));
#924 = DIRECTION('',(0.,-2.2E-16,-1.));
#925 = ADVANCED_FACE('',(#926),#938,.F.);
#926 = FACE_BOUND('',#927,.F.);
#927 = EDGE_LOOP('',(#928,#929,#936,#937));
#928 = ORIENTED_EDGE('',*,*,#751,.T.);
#929 = ORIENTED_EDGE('',*,*,#930,.T.);
#930 = EDGE_CURVE('',#752,#906,#931,.T.);
#931 = CIRCLE('',#932,3.6);
#932 = AXIS2_PLACEMENT_3D('',#933,#934,#935);
#933 = CARTESIAN_POINT('',(26.325,43.17,65.4));
#934 = DIRECTION('',(0.,1.,-0.));
#935 = DIRECTION('',(-1.,0.,0.));
#936 = ORIENTED_EDGE('',*,*,#905,.F.);
#937 = ORIENTED_EDGE('',*,*,#331,.F.);
#938 = CYLINDRICAL_SURFACE('',#939,3.6);
#939 = AXIS2_PLACEMENT_3D('',#940,#941,#942);
#940 = CARTESIAN_POINT('',(26.325,46.67,65.4));
#941 = DIRECTION('',(0.,1.,-2.2E-16));
#942 = DIRECTION('',(-1.,0.,0.));
#943 = ADVANCED_FACE('',(#944,#955),#958,.T.);
#944 = FACE_BOUND('',#945,.T.);
#945 = EDGE_LOOP('',(#946));
#946 = ORIENTED_EDGE('',*,*,#947,.T.);
#947 = EDGE_CURVE('',#948,#948,#950,.T.);
#948 = VERTEX_POINT('',#949);
#949 = CARTESIAN_POINT('',(5.5,-31.67,3.));
#950 = CIRCLE('',#951,5.5);
#951 = AXIS2_PLACEMENT_3D('',#952,#953,#954);
#952 = CARTESIAN_POINT('',(0.,-31.67,3.));
#953 = DIRECTION('',(0.,0.,1.));
#954 = DIRECTION('',(1.,0.,0.));
#955 = FACE_BOUND('',#956,.T.);
#956 = EDGE_LOOP('',(#957));
#957 = ORIENTED_EDGE('',*,*,#469,.F.);
#958 = PLANE('',#959);
#959 = AXIS2_PLACEMENT_3D('',#960,#961,#962);
#960 = CARTESIAN_POINT('',(-1.2E-16,-31.67,3.));
#961 = DIRECTION('',(0.,0.,1.));
#962 = DIRECTION('',(1.,0.,0.));
#963 = ADVANCED_FACE('',(#964,#974,#985,#996,#1007,#1018),#1029,.T.);
#964 = FACE_BOUND('',#965,.T.);
#965 = EDGE_LOOP('',(#966,#967,#968,#969,#970,#971,#972,#973));
#966 = ORIENTED_EDGE('',*,*,#734,.T.);
#967 = ORIENTED_EDGE('',*,*,#485,.T.);
#968 = ORIENTED_EDGE('',*,*,#517,.T.);
#969 = ORIENTED_EDGE('',*,*,#541,.T.);
#970 = ORIENTED_EDGE('',*,*,#566,.T.);
#971 = ORIENTED_EDGE('',*,*,#590,.T.);
#972 = ORIENTED_EDGE('',*,*,#615,.T.);
#973 = ORIENTED_EDGE('',*,*,#709,.T.);
#974 = FACE_BOUND('',#975,.T.);
#975 = EDGE_LOOP('',(#976));
#976 = ORIENTED_EDGE('',*,*,#977,.F.);
#977 = EDGE_CURVE('',#978,#978,#980,.T.);
#978 = VERTEX_POINT('',#979);
#979 = CARTESIAN_POINT('',(-62.06,-25.72,5.));
#980 = CIRCLE('',#981,4.6);
#981 = AXIS2_PLACEMENT_3D('',#982,#983,#984);
#982 = CARTESIAN_POINT('',(-66.66,-25.72,5.));
#983 = DIRECTION('',(0.,0.,1.));
#984 = DIRECTION('',(1.,0.,0.));
#985 = FACE_BOUND('',#986,.T.);
#986 = EDGE_LOOP('',(#987));
#987 = ORIENTED_EDGE('',*,*,#988,.F.);
#988 = EDGE_CURVE('',#989,#989,#991,.T.);
#989 = VERTEX_POINT('',#990);
#990 = CARTESIAN_POINT('',(5.5,-31.67,5.));
#991 = CIRCLE('',#992,5.5);
#992 = AXIS2_PLACEMENT_3D('',#993,#994,#995);
#993 = CARTESIAN_POINT('',(0.,-31.67,5.));
#994 = DIRECTION('',(0.,0.,1.));
#995 = DIRECTION('',(1.,0.,0.));
#996 = FACE_BOUND('',#997,.T.);
#997 = EDGE_LOOP('',(#998));
#998 = ORIENTED_EDGE('',*,*,#999,.F.);
#999 = EDGE_CURVE('',#1000,#1000,#1002,.T.);
#1000 = VERTEX_POINT('',#1001);
#1001 = CARTESIAN_POINT('',(70.02,-13.528,5.));
#1002 = CIRCLE('',#1003,4.6);
#1003 = AXIS2_PLACEMENT_3D('',#1004,#1005,#1006);
#1004 = CARTESIAN_POINT('',(65.42,-13.528,5.));
#1005 = DIRECTION('',(0.,0.,1.));
#1006 = DIRECTION('',(1.,0.,0.));
#1007 = FACE_BOUND('',#1008,.T.);
#1008 = EDGE_LOOP('',(#1009));
#1009 = ORIENTED_EDGE('',*,*,#1010,.F.);
#1010 = EDGE_CURVE('',#1011,#1011,#1013,.T.);
#1011 = VERTEX_POINT('',#1012);
#1012 = CARTESIAN_POINT('',(-62.06,20.,5.));
#1013 = CIRCLE('',#1014,4.6);
#1014 = AXIS2_PLACEMENT_3D('',#1015,#1016,#1017);
#1015 = CARTESIAN_POINT('',(-66.66,20.,5.));
#1016 = DIRECTION('',(0.,0.,1.));
#1017 = DIRECTION('',(1.,0.,0.));
#1018 = FACE_BOUND('',#1019,.T.);
#1019 = EDGE_LOOP('',(#1020));
#1020 = ORIENTED_EDGE('',*,*,#1021,.F.);
#1021 = EDGE_CURVE('',#1022,#1022,#1024,.T.);
#1022 = VERTEX_POINT('',#1023);
#1023 = CARTESIAN_POINT('',(70.02,20.,5.));
#1024 = CIRCLE('',#1025,4.6);
#1025 = AXIS2_PLACEMENT_3D('',#1026,#1027,#1028);
#1026 = CARTESIAN_POINT('',(65.42,20.,5.));
#1027 = DIRECTION('',(0.,0.,1.));
#1028 = DIRECTION('',(1.,0.,0.));
#1029 = PLANE('',#1030);
#1030 = AXIS2_PLACEMENT_3D('',#1031,#1032,#1033);
#1031 = CARTESIAN_POINT('',(6.9E-16,-1.2E-16,5.));
#1032 = DIRECTION('',(0.,0.,1.));
#1033 = DIRECTION('',(1.,0.,0.));
#1034 = ADVANCED_FACE('',(#1035),#1061,.F.);
#1035 = FACE_BOUND('',#1036,.F.);
#1036 = EDGE_LOOP('',(#1037,#1045,#1046,#1054));
#1037 = ORIENTED_EDGE('',*,*,#1038,.T.);
#1038 = EDGE_CURVE('',#1039,#634,#1041,.T.);
#1039 = VERTEX_POINT('',#1040);
#1040 = CARTESIAN_POINT('',(32.5,43.17,10.109999588238));
#1041 = LINE('',#1042,#1043);
#1042 = CARTESIAN_POINT('',(32.5,43.17,10.109999588238));
#1043 = VECTOR('',#1044,1.);
#1044 = DIRECTION('',(0.,-1.,2.2E-16));
#1045 = ORIENTED_EDGE('',*,*,#633,.T.);
#1046 = ORIENTED_EDGE('',*,*,#1047,.F.);
#1047 = EDGE_CURVE('',#1048,#636,#1050,.T.);
#1048 = VERTEX_POINT('',#1049);
#1049 = CARTESIAN_POINT('',(31.24,43.17,8.85));
#1050 = LINE('',#1051,#1052);
#1051 = CARTESIAN_POINT('',(31.24,43.17,8.85));
#1052 = VECTOR('',#1053,1.);
#1053 = DIRECTION('',(0.,-1.,2.2E-16));
#1054 = ORIENTED_EDGE('',*,*,#1055,.F.);
#1055 = EDGE_CURVE('',#1039,#1048,#1056,.T.);
#1056 = CIRCLE('',#1057,1.26);
#1057 = AXIS2_PLACEMENT_3D('',#1058,#1059,#1060);
#1058 = CARTESIAN_POINT('',(31.24,43.17,10.11));
#1059 = DIRECTION('',(0.,1.,-0.));
#1060 = DIRECTION('',(-1.,0.,0.));
#1061 = CYLINDRICAL_SURFACE('',#1062,1.26);
#1062 = AXIS2_PLACEMENT_3D('',#1063,#1064,#1065);
#1063 = CARTESIAN_POINT('',(31.24,43.17,10.11));
#1064 = DIRECTION('',(0.,1.,-2.2E-16));
#1065 = DIRECTION('',(-1.,0.,0.));
#1066 = ADVANCED_FACE('',(#1067),#1085,.T.);
#1067 = FACE_BOUND('',#1068,.T.);
#1068 = EDGE_LOOP('',(#1069,#1070,#1071,#1079));
#1069 = ORIENTED_EDGE('',*,*,#1038,.T.);
#1070 = ORIENTED_EDGE('',*,*,#695,.T.);
#1071 = ORIENTED_EDGE('',*,*,#1072,.F.);
#1072 = EDGE_CURVE('',#1073,#687,#1075,.T.);
#1073 = VERTEX_POINT('',#1074);
#1074 = CARTESIAN_POINT('',(32.5,43.17,71.190000411762));
#1075 = LINE('',#1076,#1077);
#1076 = CARTESIAN_POINT('',(32.5,43.17,71.190000411762));
#1077 = VECTOR('',#1078,1.);
#1078 = DIRECTION('',(0.,-1.,2.2E-16));
#1079 = ORIENTED_EDGE('',*,*,#1080,.F.);
#1080 = EDGE_CURVE('',#1039,#1073,#1081,.T.);
#1081 = LINE('',#1082,#1083);
#1082 = CARTESIAN_POINT('',(32.5,43.17,10.109999588238));
#1083 = VECTOR('',#1084,1.);
#1084 = DIRECTION('',(1.2E-16,0.,1.));
#1085 = PLANE('',#1086);
#1086 = AXIS2_PLACEMENT_3D('',#1087,#1088,#1089);
#1087 = CARTESIAN_POINT('',(32.5,43.17,10.109999588238));
#1088 = DIRECTION('',(-1.,0.,1.2E-16));
#1089 = DIRECTION('',(1.2E-16,2.2E-16,1.));
#1090 = ADVANCED_FACE('',(#1091),#1110,.F.);
#1091 = FACE_BOUND('',#1092,.F.);
#1092 = EDGE_LOOP('',(#1093,#1101,#1102,#1103));
#1093 = ORIENTED_EDGE('',*,*,#1094,.T.);
#1094 = EDGE_CURVE('',#1095,#679,#1097,.T.);
#1095 = VERTEX_POINT('',#1096);
#1096 = CARTESIAN_POINT('',(31.24,43.17,72.45));
#1097 = LINE('',#1098,#1099);
#1098 = CARTESIAN_POINT('',(31.24,43.17,72.45));
#1099 = VECTOR('',#1100,1.);
#1100 = DIRECTION('',(0.,-1.,2.2E-16));
#1101 = ORIENTED_EDGE('',*,*,#686,.T.);
#1102 = ORIENTED_EDGE('',*,*,#1072,.F.);
#1103 = ORIENTED_EDGE('',*,*,#1104,.F.);
#1104 = EDGE_CURVE('',#1095,#1073,#1105,.T.);
#1105 = CIRCLE('',#1106,1.26);
#1106 = AXIS2_PLACEMENT_3D('',#1107,#1108,#1109);
#1107 = CARTESIAN_POINT('',(31.24,43.17,71.19));
#1108 = DIRECTION('',(0.,1.,-0.));
#1109 = DIRECTION('',(-1.,0.,0.));
#1110 = CYLINDRICAL_SURFACE('',#1111,1.26);
#1111 = AXIS2_PLACEMENT_3D('',#1112,#1113,#1114);
#1112 = CARTESIAN_POINT('',(31.24,43.17,71.19));
#1113 = DIRECTION('',(0.,1.,-2.2E-16));
#1114 = DIRECTION('',(-1.,0.,0.));
#1115 = ADVANCED_FACE('',(#1116),#1134,.T.);
#1116 = FACE_BOUND('',#1117,.T.);
#1117 = EDGE_LOOP('',(#1118,#1119,#1120,#1128));
#1118 = ORIENTED_EDGE('',*,*,#1094,.T.);
#1119 = ORIENTED_EDGE('',*,*,#678,.T.);
#1120 = ORIENTED_EDGE('',*,*,#1121,.F.);
#1121 = EDGE_CURVE('',#1122,#670,#1124,.T.);
#1122 = VERTEX_POINT('',#1123);
#1123 = CARTESIAN_POINT('',(-31.24,43.17,72.45));
#1124 = LINE('',#1125,#1126);
#1125 = CARTESIAN_POINT('',(-31.24,43.17,72.45));
#1126 = VECTOR('',#1127,1.);
#1127 = DIRECTION('',(0.,-1.,2.2E-16));
#1128 = ORIENTED_EDGE('',*,*,#1129,.F.);
#1129 = EDGE_CURVE('',#1095,#1122,#1130,.T.);
#1130 = LINE('',#1131,#1132);
#1131 = CARTESIAN_POINT('',(31.24,43.17,72.45));
#1132 = VECTOR('',#1133,1.);
#1133 = DIRECTION('',(-1.,0.,0.));
#1134 = PLANE('',#1135);
#1135 = AXIS2_PLACEMENT_3D('',#1136,#1137,#1138);
#1136 = CARTESIAN_POINT('',(31.24,43.17,72.45));
#1137 = DIRECTION('',(-0.,-2.2E-16,-1.));
#1138 = DIRECTION('',(-1.,0.,0.));
#1139 = ADVANCED_FACE('',(#1140),#1159,.F.);
#1140 = FACE_BOUND('',#1141,.F.);
#1141 = EDGE_LOOP('',(#1142,#1150,#1151,#1152));
#1142 = ORIENTED_EDGE('',*,*,#1143,.T.);
#1143 = EDGE_CURVE('',#1144,#662,#1146,.T.);
#1144 = VERTEX_POINT('',#1145);
#1145 = CARTESIAN_POINT('',(-32.5,43.17,71.190000411762));
#1146 = LINE('',#1147,#1148);
#1147 = CARTESIAN_POINT('',(-32.5,43.17,71.190000411762));
#1148 = VECTOR('',#1149,1.);
#1149 = DIRECTION('',(0.,-1.,2.2E-16));
#1150 = ORIENTED_EDGE('',*,*,#669,.T.);
#1151 = ORIENTED_EDGE('',*,*,#1121,.F.);
#1152 = ORIENTED_EDGE('',*,*,#1153,.F.);
#1153 = EDGE_CURVE('',#1144,#1122,#1154,.T.);
#1154 = CIRCLE('',#1155,1.26);
#1155 = AXIS2_PLACEMENT_3D('',#1156,#1157,#1158);
#1156 = CARTESIAN_POINT('',(-31.24,43.17,71.19));
#1157 = DIRECTION('',(0.,1.,-0.));
#1158 = DIRECTION('',(-1.,0.,0.));
#1159 = CYLINDRICAL_SURFACE('',#1160,1.26);
#1160 = AXIS2_PLACEMENT_3D('',#1161,#1162,#1163);
#1161 = CARTESIAN_POINT('',(-31.24,43.17,71.19));
#1162 = DIRECTION('',(0.,1.,-2.2E-16));
#1163 = DIRECTION('',(-1.,0.,0.));
#1164 = ADVANCED_FACE('',(#1165),#1183,.T.);
#1165 = FACE_BOUND('',#1166,.T.);
#1166 = EDGE_LOOP('',(#1167,#1168,#1169,#1177));
#1167 = ORIENTED_EDGE('',*,*,#1143,.T.);
#1168 = ORIENTED_EDGE('',*,*,#661,.T.);
#1169 = ORIENTED_EDGE('',*,*,#1170,.F.);
#1170 = EDGE_CURVE('',#1171,#653,#1173,.T.);
#1171 = VERTEX_POINT('',#1172);
#1172 = CARTESIAN_POINT('',(-32.5,43.17,10.109999588238));
#1173 = LINE('',#1174,#1175);
#1174 = CARTESIAN_POINT('',(-32.5,43.17,10.109999588238));
#1175 = VECTOR('',#1176,1.);
#1176 = DIRECTION('',(0.,-1.,2.2E-16));
#1177 = ORIENTED_EDGE('',*,*,#1178,.F.);
#1178 = EDGE_CURVE('',#1144,#1171,#1179,.T.);
#1179 = LINE('',#1180,#1181);
#1180 = CARTESIAN_POINT('',(-32.5,43.17,71.190000411762));
#1181 = VECTOR('',#1182,1.);
#1182 = DIRECTION('',(-1.2E-16,0.,-1.));
#1183 = PLANE('',#1184);
#1184 = AXIS2_PLACEMENT_3D('',#1185,#1186,#1187);
#1185 = CARTESIAN_POINT('',(-32.5,43.17,71.190000411762));
#1186 = DIRECTION('',(1.,0.,-1.2E-16));
#1187 = DIRECTION('',(-1.2E-16,-2.2E-16,-1.));
#1188 = ADVANCED_FACE('',(#1189),#1208,.F.);
#1189 = FACE_BOUND('',#1190,.F.);
#1190 = EDGE_LOOP('',(#1191,#1199,#1200,#1201));
#1191 = ORIENTED_EDGE('',*,*,#1192,.T.);
#1192 = EDGE_CURVE('',#1193,#645,#1195,.T.);
#1193 = VERTEX_POINT('',#1194);
#1194 = CARTESIAN_POINT('',(-31.24,43.17,8.85));
#1195 = LINE('',#1196,#1197);
#1196 = CARTESIAN_POINT('',(-31.24,43.17,8.85));
#1197 = VECTOR('',#1198,1.);
#1198 = DIRECTION('',(0.,-1.,2.2E-16));
#1199 = ORIENTED_EDGE('',*,*,#652,.T.);
#1200 = ORIENTED_EDGE('',*,*,#1170,.F.);
#1201 = ORIENTED_EDGE('',*,*,#1202,.F.);
#1202 = EDGE_CURVE('',#1193,#1171,#1203,.T.);
#1203 = CIRCLE('',#1204,1.26);
#1204 = AXIS2_PLACEMENT_3D('',#1205,#1206,#1207);
#1205 = CARTESIAN_POINT('',(-31.24,43.17,10.11));
#1206 = DIRECTION('',(0.,1.,-0.));
#1207 = DIRECTION('',(-1.,0.,0.));
#1208 = CYLINDRICAL_SURFACE('',#1209,1.26);
#1209 = AXIS2_PLACEMENT_3D('',#1210,#1211,#1212);
#1210 = CARTESIAN_POINT('',(-31.24,43.17,10.11));
#1211 = DIRECTION('',(0.,1.,-2.2E-16));
#1212 = DIRECTION('',(-1.,0.,0.));
#1213 = ADVANCED_FACE('',(#1214),#1225,.F.);
#1214 = FACE_BOUND('',#1215,.F.);
#1215 = EDGE_LOOP('',(#1216,#1217,#1218,#1219));
#1216 = ORIENTED_EDGE('',*,*,#1047,.T.);
#1217 = ORIENTED_EDGE('',*,*,#644,.T.);
#1218 = ORIENTED_EDGE('',*,*,#1192,.F.);
#1219 = ORIENTED_EDGE('',*,*,#1220,.F.);
#1220 = EDGE_CURVE('',#1048,#1193,#1221,.T.);
#1221 = LINE('',#1222,#1223);
#1222 = CARTESIAN_POINT('',(31.24,43.17,8.85));
#1223 = VECTOR('',#1224,1.);
#1224 = DIRECTION('',(-1.,0.,0.));
#1225 = PLANE('',#1226);
#1226 = AXIS2_PLACEMENT_3D('',#1227,#1228,#1229);
#1227 = CARTESIAN_POINT('',(31.24,43.17,8.85));
#1228 = DIRECTION('',(-0.,-2.2E-16,-1.));
#1229 = DIRECTION('',(-1.,0.,0.));
#1230 = ADVANCED_FACE('',(#1231,#1241),#1251,.F.);
#1231 = FACE_BOUND('',#1232,.F.);
#1232 = EDGE_LOOP('',(#1233,#1234,#1235,#1236,#1237,#1238,#1239,#1240));
#1233 = ORIENTED_EDGE('',*,*,#1220,.T.);
#1234 = ORIENTED_EDGE('',*,*,#1202,.T.);
#1235 = ORIENTED_EDGE('',*,*,#1178,.F.);
#1236 = ORIENTED_EDGE('',*,*,#1153,.T.);
#1237 = ORIENTED_EDGE('',*,*,#1129,.F.);
#1238 = ORIENTED_EDGE('',*,*,#1104,.T.);
#1239 = ORIENTED_EDGE('',*,*,#1080,.F.);
#1240 = ORIENTED_EDGE('',*,*,#1055,.T.);
#1241 = FACE_BOUND('',#1242,.F.);
#1242 = EDGE_LOOP('',(#1243,#1244,#1245,#1246,#1247,#1248,#1249,#1250));
#1243 = ORIENTED_EDGE('',*,*,#930,.F.);
#1244 = ORIENTED_EDGE('',*,*,#759,.T.);
#1245 = ORIENTED_EDGE('',*,*,#790,.F.);
#1246 = ORIENTED_EDGE('',*,*,#808,.T.);
#1247 = ORIENTED_EDGE('',*,*,#839,.F.);
#1248 = ORIENTED_EDGE('',*,*,#864,.F.);
#1249 = ORIENTED_EDGE('',*,*,#888,.F.);
#1250 = ORIENTED_EDGE('',*,*,#913,.F.);
#1251 = PLANE('',#1252);
#1252 = AXIS2_PLACEMENT_3D('',#1253,#1254,#1255);
#1253 = CARTESIAN_POINT('',(3.64E-15,43.17,40.65));
#1254 = DIRECTION('',(0.,1.,-2.3E-16));
#1255 = DIRECTION('',(0.,2.3E-16,1.));
#1256 = ADVANCED_FACE('',(#1257),#1268,.F.);
#1257 = FACE_BOUND('',#1258,.F.);
#1258 = EDGE_LOOP('',(#1259,#1265,#1266,#1267));
#1259 = ORIENTED_EDGE('',*,*,#1260,.T.);
#1260 = EDGE_CURVE('',#989,#948,#1261,.T.);
#1261 = LINE('',#1262,#1263);
#1262 = CARTESIAN_POINT('',(5.5,-31.67,5.));
#1263 = VECTOR('',#1264,1.);
#1264 = DIRECTION('',(-0.,-0.,-1.));
#1265 = ORIENTED_EDGE('',*,*,#947,.T.);
#1266 = ORIENTED_EDGE('',*,*,#1260,.F.);
#1267 = ORIENTED_EDGE('',*,*,#988,.F.);
#1268 = CYLINDRICAL_SURFACE('',#1269,5.5);
#1269 = AXIS2_PLACEMENT_3D('',#1270,#1271,#1272);
#1270 = CARTESIAN_POINT('',(0.,-31.67,5.));
#1271 = DIRECTION('',(0.,0.,1.));
#1272 = DIRECTION('',(1.,0.,-0.));
#1273 = ADVANCED_FACE('',(#1274),#1293,.T.);
#1274 = FACE_BOUND('',#1275,.F.);
#1275 = EDGE_LOOP('',(#1276,#1284,#1291,#1292));
#1276 = ORIENTED_EDGE('',*,*,#1277,.T.);
#1277 = EDGE_CURVE('',#978,#1278,#1280,.T.);
#1278 = VERTEX_POINT('',#1279);
#1279 = CARTESIAN_POINT('',(-62.06,-25.72,55.));
#1280 = LINE('',#1281,#1282);
#1281 = CARTESIAN_POINT('',(-62.06,-25.72,5.));
#1282 = VECTOR('',#1283,1.);
#1283 = DIRECTION('',(0.,0.,1.));
#1284 = ORIENTED_EDGE('',*,*,#1285,.T.);
#1285 = EDGE_CURVE('',#1278,#1278,#1286,.T.);
#1286 = CIRCLE('',#1287,4.6);
#1287 = AXIS2_PLACEMENT_3D('',#1288,#1289,#1290);
#1288 = CARTESIAN_POINT('',(-66.66,-25.72,55.));
#1289 = DIRECTION('',(0.,0.,1.));
#1290 = DIRECTION('',(1.,0.,0.));
#1291 = ORIENTED_EDGE('',*,*,#1277,.F.);
#1292 = ORIENTED_EDGE('',*,*,#977,.F.);
#1293 = CYLINDRICAL_SURFACE('',#1294,4.6);
#1294 = AXIS2_PLACEMENT_3D('',#1295,#1296,#1297);
#1295 = CARTESIAN_POINT('',(-66.66,-25.72,5.));
#1296 = DIRECTION('',(-0.,-0.,-1.));
#1297 = DIRECTION('',(1.,0.,0.));
#1298 = ADVANCED_FACE('',(#1299),#1318,.T.);
#1299 = FACE_BOUND('',#1300,.F.);
#1300 = EDGE_LOOP('',(#1301,#1309,#1316,#1317));
#1301 = ORIENTED_EDGE('',*,*,#1302,.T.);
#1302 = EDGE_CURVE('',#1000,#1303,#1305,.T.);
#1303 = VERTEX_POINT('',#1304);
#1304 = CARTESIAN_POINT('',(70.02,-13.528,55.));
#1305 = LINE('',#1306,#1307);
#1306 = CARTESIAN_POINT('',(70.02,-13.528,5.));
#1307 = VECTOR('',#1308,1.);
#1308 = DIRECTION('',(0.,0.,1.));
#1309 = ORIENTED_EDGE('',*,*,#1310,.T.);
#1310 = EDGE_CURVE('',#1303,#1303,#1311,.T.);
#1311 = CIRCLE('',#1312,4.6);
#1312 = AXIS2_PLACEMENT_3D('',#1313,#1314,#1315);
#1313 = CARTESIAN_POINT('',(65.42,-13.528,55.));
#1314 = DIRECTION('',(0.,0.,1.));
#1315 = DIRECTION('',(1.,0.,0.));
#1316 = ORIENTED_EDGE('',*,*,#1302,.F.);
#1317 = ORIENTED_EDGE('',*,*,#999,.F.);
#1318 = CYLINDRICAL_SURFACE('',#1319,4.6);
#1319 = AXIS2_PLACEMENT_3D('',#1320,#1321,#1322);
#1320 = CARTESIAN_POINT('',(65.42,-13.528,5.));
#1321 = DIRECTION('',(-0.,-0.,-1.));
#1322 = DIRECTION('',(1.,0.,0.));
#1323 = ADVANCED_FACE('',(#1324),#1343,.T.);
#1324 = FACE_BOUND('',#1325,.F.);
#1325 = EDGE_LOOP('',(#1326,#1334,#1341,#1342));
#1326 = ORIENTED_EDGE('',*,*,#1327,.T.);
#1327 = EDGE_CURVE('',#1011,#1328,#1330,.T.);
#1328 = VERTEX_POINT('',#1329);
#1329 = CARTESIAN_POINT('',(-62.06,20.,55.));
#1330 = LINE('',#1331,#1332);
#1331 = CARTESIAN_POINT('',(-62.06,20.,5.));
#1332 = VECTOR('',#1333,1.);
#1333 = DIRECTION('',(0.,0.,1.));
#1334 = ORIENTED_EDGE('',*,*,#1335,.T.);
#1335 = EDGE_CURVE('',#1328,#1328,#1336,.T.);
#1336 = CIRCLE('',#1337,4.6);
#1337 = AXIS2_PLACEMENT_3D('',#1338,#1339,#1340);
#1338 = CARTESIAN_POINT('',(-66.66,20.,55.));
#1339 = DIRECTION('',(0.,0.,1.));
#1340 = DIRECTION('',(1.,0.,0.));
#1341 = ORIENTED_EDGE('',*,*,#1327,.F.);
#1342 = ORIENTED_EDGE('',*,*,#1010,.F.);
#1343 = CYLINDRICAL_SURFACE('',#1344,4.6);
#1344 = AXIS2_PLACEMENT_3D('',#1345,#1346,#1347);
#1345 = CARTESIAN_POINT('',(-66.66,20.,5.));
#1346 = DIRECTION('',(-0.,-0.,-1.));
#1347 = DIRECTION('',(1.,0.,0.));
#1348 = ADVANCED_FACE('',(#1349),#1368,.T.);
#1349 = FACE_BOUND('',#1350,.F.);
#1350 = EDGE_LOOP('',(#1351,#1359,#1366,#1367));
#1351 = ORIENTED_EDGE('',*,*,#1352,.T.);
#1352 = EDGE_CURVE('',#1022,#1353,#1355,.T.);
#1353 = VERTEX_POINT('',#1354);
#1354 = CARTESIAN_POINT('',(70.02,20.,55.));
#1355 = LINE('',#1356,#1357);
#1356 = CARTESIAN_POINT('',(70.02,20.,5.));
#1357 = VECTOR('',#1358,1.);
#1358 = DIRECTION('',(0.,0.,1.));
#1359 = ORIENTED_EDGE('',*,*,#1360,.T.);
#1360 = EDGE_CURVE('',#1353,#1353,#1361,.T.);
#1361 = CIRCLE('',#1362,4.6);
#1362 = AXIS2_PLACEMENT_3D('',#1363,#1364,#1365);
#1363 = CARTESIAN_POINT('',(65.42,20.,55.));
#1364 = DIRECTION('',(0.,0.,1.));
#1365 = DIRECTION('',(1.,0.,0.));
#1366 = ORIENTED_EDGE('',*,*,#1352,.F.);
#1367 = ORIENTED_EDGE('',*,*,#1021,.F.);
#1368 = CYLINDRICAL_SURFACE('',#1369,4.6);
#1369 = AXIS2_PLACEMENT_3D('',#1370,#1371,#1372);
#1370 = CARTESIAN_POINT('',(65.42,20.,5.));
#1371 = DIRECTION('',(-0.,-0.,-1.));
#1372 = DIRECTION('',(1.,0.,0.));
#1373 = ADVANCED_FACE('',(#1374,#1377),#1388,.T.);
#1374 = FACE_BOUND('',#1375,.T.);
#1375 = EDGE_LOOP('',(#1376));
#1376 = ORIENTED_EDGE('',*,*,#1285,.T.);
#1377 = FACE_BOUND('',#1378,.T.);
#1378 = EDGE_LOOP('',(#1379));
#1379 = ORIENTED_EDGE('',*,*,#1380,.F.);
#1380 = EDGE_CURVE('',#1381,#1381,#1383,.T.);
#1381 = VERTEX_POINT('',#1382);
#1382 = CARTESIAN_POINT('',(-65.06,-25.72,55.));
#1383 = CIRCLE('',#1384,1.6);
#1384 = AXIS2_PLACEMENT_3D('',#1385,#1386,#1387);
#1385 = CARTESIAN_POINT('',(-66.66,-25.72,55.));
#1386 = DIRECTION('',(0.,0.,1.));
#1387 = DIRECTION('',(1.,0.,0.));
#1388 = PLANE('',#1389);
#1389 = AXIS2_PLACEMENT_3D('',#1390,#1391,#1392);
#1390 = CARTESIAN_POINT('',(-0.62,0.188,55.));
#1391 = DIRECTION('',(0.,0.,1.));
#1392 = DIRECTION('',(1.,0.,0.));
#1393 = ADVANCED_FACE('',(#1394,#1397),#1408,.T.);
#1394 = FACE_BOUND('',#1395,.T.);
#1395 = EDGE_LOOP('',(#1396));
#1396 = ORIENTED_EDGE('',*,*,#1310,.T.);
#1397 = FACE_BOUND('',#1398,.T.);
#1398 = EDGE_LOOP('',(#1399));
#1399 = ORIENTED_EDGE('',*,*,#1400,.F.);
#1400 = EDGE_CURVE('',#1401,#1401,#1403,.T.);
#1401 = VERTEX_POINT('',#1402);
#1402 = CARTESIAN_POINT('',(67.02,-13.528,55.));
#1403 = CIRCLE('',#1404,1.6);
#1404 = AXIS2_PLACEMENT_3D('',#1405,#1406,#1407);
#1405 = CARTESIAN_POINT('',(65.42,-13.528,55.));
#1406 = DIRECTION('',(0.,0.,1.));
#1407 = DIRECTION('',(1.,0.,0.));
#1408 = PLANE('',#1409);
#1409 = AXIS2_PLACEMENT_3D('',#1410,#1411,#1412);
#1410 = CARTESIAN_POINT('',(-0.62,0.188,55.));
#1411 = DIRECTION('',(0.,0.,1.));
#1412 = DIRECTION('',(1.,0.,0.));
#1413 = ADVANCED_FACE('',(#1414,#1417),#1428,.T.);
#1414 = FACE_BOUND('',#1415,.T.);
#1415 = EDGE_LOOP('',(#1416));
#1416 = ORIENTED_EDGE('',*,*,#1335,.T.);
#1417 = FACE_BOUND('',#1418,.T.);
#1418 = EDGE_LOOP('',(#1419));
#1419 = ORIENTED_EDGE('',*,*,#1420,.F.);
#1420 = EDGE_CURVE('',#1421,#1421,#1423,.T.);
#1421 = VERTEX_POINT('',#1422);
#1422 = CARTESIAN_POINT('',(-65.06,20.,55.));
#1423 = CIRCLE('',#1424,1.6);
#1424 = AXIS2_PLACEMENT_3D('',#1425,#1426,#1427);
#1425 = CARTESIAN_POINT('',(-66.66,20.,55.));
#1426 = DIRECTION('',(0.,0.,1.));
#1427 = DIRECTION('',(1.,0.,0.));
#1428 = PLANE('',#1429);
#1429 = AXIS2_PLACEMENT_3D('',#1430,#1431,#1432);
#1430 = CARTESIAN_POINT('',(-0.62,0.188,55.));
#1431 = DIRECTION('',(0.,0.,1.));
#1432 = DIRECTION('',(1.,0.,0.));
#1433 = ADVANCED_FACE('',(#1434,#1437),#1448,.T.);
#1434 = FACE_BOUND('',#1435,.T.);
#1435 = EDGE_LOOP('',(#1436));
#1436 = ORIENTED_EDGE('',*,*,#1360,.T.);
#1437 = FACE_BOUND('',#1438,.T.);
#1438 = EDGE_LOOP('',(#1439));
#1439 = ORIENTED_EDGE('',*,*,#1440,.F.);
#1440 = EDGE_CURVE('',#1441,#1441,#1443,.T.);
#1441 = VERTEX_POINT('',#1442);
#1442 = CARTESIAN_POINT('',(67.02,20.,55.));
#1443 = CIRCLE('',#1444,1.6);
#1444 = AXIS2_PLACEMENT_3D('',#1445,#1446,#1447);
#1445 = CARTESIAN_POINT('',(65.42,20.,55.));
#1446 = DIRECTION('',(0.,0.,1.));
#1447 = DIRECTION('',(1.,0.,0.));
#1448 = PLANE('',#1449);
#1449 = AXIS2_PLACEMENT_3D('',#1450,#1451,#1452);
#1450 = CARTESIAN_POINT('',(-0.62,0.188,55.));
#1451 = DIRECTION('',(0.,0.,1.));
#1452 = DIRECTION('',(1.,0.,0.));
#1453 = ADVANCED_FACE('',(#1454),#1473,.F.);
#1454 = FACE_BOUND('',#1455,.T.);
#1455 = EDGE_LOOP('',(#1456,#1464,#1465,#1466));
#1456 = ORIENTED_EDGE('',*,*,#1457,.F.);
#1457 = EDGE_CURVE('',#1381,#1458,#1460,.T.);
#1458 = VERTEX_POINT('',#1459);
#1459 = CARTESIAN_POINT('',(-65.06,-25.72,45.));
#1460 = LINE('',#1461,#1462);
#1461 = CARTESIAN_POINT('',(-65.06,-25.72,55.));
#1462 = VECTOR('',#1463,1.);
#1463 = DIRECTION('',(-7.E-17,0.,-1.));
#1464 = ORIENTED_EDGE('',*,*,#1380,.T.);
#1465 = ORIENTED_EDGE('',*,*,#1457,.T.);
#1466 = ORIENTED_EDGE('',*,*,#1467,.F.);
#1467 = EDGE_CURVE('',#1458,#1458,#1468,.T.);
#1468 = CIRCLE('',#1469,1.6);
#1469 = AXIS2_PLACEMENT_3D('',#1470,#1471,#1472);
#1470 = CARTESIAN_POINT('',(-66.66,-25.72,45.));
#1471 = DIRECTION('',(0.,0.,1.));
#1472 = DIRECTION('',(1.,0.,0.));
#1473 = CYLINDRICAL_SURFACE('',#1474,1.6);
#1474 = AXIS2_PLACEMENT_3D('',#1475,#1476,#1477);
#1475 = CARTESIAN_POINT('',(-66.66,-25.72,55.));
#1476 = DIRECTION('',(-0.,-0.,-1.));
#1477 = DIRECTION('',(1.,0.,0.));
#1478 = ADVANCED_FACE('',(#1479),#1498,.F.);
#1479 = FACE_BOUND('',#1480,.T.);
#1480 = EDGE_LOOP('',(#1481,#1489,#1490,#1491));
#1481 = ORIENTED_EDGE('',*,*,#1482,.F.);
#1482 = EDGE_CURVE('',#1401,#1483,#1485,.T.);
#1483 = VERTEX_POINT('',#1484);
#1484 = CARTESIAN_POINT('',(67.02,-13.528,45.));
#1485 = LINE('',#1486,#1487);
#1486 = CARTESIAN_POINT('',(67.02,-13.528,55.));
#1487 = VECTOR('',#1488,1.);
#1488 = DIRECTION('',(-7.E-17,0.,-1.));
#1489 = ORIENTED_EDGE('',*,*,#1400,.T.);
#1490 = ORIENTED_EDGE('',*,*,#1482,.T.);
#1491 = ORIENTED_EDGE('',*,*,#1492,.F.);
#1492 = EDGE_CURVE('',#1483,#1483,#1493,.T.);
#1493 = CIRCLE('',#1494,1.6);
#1494 = AXIS2_PLACEMENT_3D('',#1495,#1496,#1497);
#1495 = CARTESIAN_POINT('',(65.42,-13.528,45.));
#1496 = DIRECTION('',(0.,0.,1.));
#1497 = DIRECTION('',(1.,0.,0.));
#1498 = CYLINDRICAL_SURFACE('',#1499,1.6);
#1499 = AXIS2_PLACEMENT_3D('',#1500,#1501,#1502);
#1500 = CARTESIAN_POINT('',(65.42,-13.528,55.));
#1501 = DIRECTION('',(-0.,-0.,-1.));
#1502 = DIRECTION('',(1.,0.,0.));
#1503 = ADVANCED_FACE('',(#1504),#1523,.F.);
#1504 = FACE_BOUND('',#1505,.T.);
#1505 = EDGE_LOOP('',(#1506,#1514,#1515,#1516));
#1506 = ORIENTED_EDGE('',*,*,#1507,.F.);
#1507 = EDGE_CURVE('',#1421,#1508,#1510,.T.);
#1508 = VERTEX_POINT('',#1509);
#1509 = CARTESIAN_POINT('',(-65.06,20.,45.));
#1510 = LINE('',#1511,#1512);
#1511 = CARTESIAN_POINT('',(-65.06,20.,55.));
#1512 = VECTOR('',#1513,1.);
#1513 = DIRECTION('',(-7.E-17,0.,-1.));
#1514 = ORIENTED_EDGE('',*,*,#1420,.T.);
#1515 = ORIENTED_EDGE('',*,*,#1507,.T.);
#1516 = ORIENTED_EDGE('',*,*,#1517,.F.);
#1517 = EDGE_CURVE('',#1508,#1508,#1518,.T.);
#1518 = CIRCLE('',#1519,1.6);
#1519 = AXIS2_PLACEMENT_3D('',#1520,#1521,#1522);
#1520 = CARTESIAN_POINT('',(-66.66,20.,45.));
#1521 = DIRECTION('',(0.,0.,1.));
#1522 = DIRECTION('',(1.,0.,0.));
#1523 = CYLINDRICAL_SURFACE('',#1524,1.6);
#1524 = AXIS2_PLACEMENT_3D('',#1525,#1526,#1527);
#1525 = CARTESIAN_POINT('',(-66.66,20.,55.));
#1526 = DIRECTION('',(-0.,-0.,-1.));
#1527 = DIRECTION('',(1.,0.,0.));
#1528 = ADVANCED_FACE('',(#1529),#1548,.F.);
#1529 = FACE_BOUND('',#1530,.T.);
#1530 = EDGE_LOOP('',(#1531,#1539,#1540,#1541));
#1531 = ORIENTED_EDGE('',*,*,#1532,.F.);
#1532 = EDGE_CURVE('',#1441,#1533,#1535,.T.);
#1533 = VERTEX_POINT('',#1534);
#1534 = CARTESIAN_POINT('',(67.02,20.,45.));
#1535 = LINE('',#1536,#1537);
#1536 = CARTESIAN_POINT('',(67.02,20.,55.));
#1537 = VECTOR('',#1538,1.);
#1538 = DIRECTION('',(-7.E-17,0.,-1.));
#1539 = ORIENTED_EDGE('',*,*,#1440,.T.);
#1540 = ORIENTED_EDGE('',*,*,#1532,.T.);
#1541 = ORIENTED_EDGE('',*,*,#1542,.F.);
#1542 = EDGE_CURVE('',#1533,#1533,#1543,.T.);
#1543 = CIRCLE('',#1544,1.6);
#1544 = AXIS2_PLACEMENT_3D('',#1545,#1546,#1547);
#1545 = CARTESIAN_POINT('',(65.42,20.,45.));
#1546 = DIRECTION('',(0.,0.,1.));
#1547 = DIRECTION('',(1.,0.,0.));
#1548 = CYLINDRICAL_SURFACE('',#1549,1.6);
#1549 = AXIS2_PLACEMENT_3D('',#1550,#1551,#1552);
#1550 = CARTESIAN_POINT('',(65.42,20.,55.));
#1551 = DIRECTION('',(-0.,-0.,-1.));
#1552 = DIRECTION('',(1.,0.,0.));
#1553 = ADVANCED_FACE('',(#1554),#1557,.T.);
#1554 = FACE_BOUND('',#1555,.T.);
#1555 = EDGE_LOOP('',(#1556));
#1556 = ORIENTED_EDGE('',*,*,#1467,.T.);
#1557 = PLANE('',#1558);
#1558 = AXIS2_PLACEMENT_3D('',#1559,#1560,#1561);
#1559 = CARTESIAN_POINT('',(-66.66,-25.72,45.));
#1560 = DIRECTION('',(0.,0.,1.));
#1561 = DIRECTION('',(1.,0.,0.));
#1562 = ADVANCED_FACE('',(#1563),#1566,.T.);
#1563 = FACE_BOUND('',#1564,.T.);
#1564 = EDGE_LOOP('',(#1565));
#1565 = ORIENTED_EDGE('',*,*,#1492,.T.);
#1566 = PLANE('',#1567);
#1567 = AXIS2_PLACEMENT_3D('',#1568,#1569,#1570);
#1568 = CARTESIAN_POINT('',(65.42,-13.528,45.));
#1569 = DIRECTION('',(0.,0.,1.));
#1570 = DIRECTION('',(1.,0.,0.));
#1571 = ADVANCED_FACE('',(#1572),#1575,.T.);
#1572 = FACE_BOUND('',#1573,.T.);
#1573 = EDGE_LOOP('',(#1574));
#1574 = ORIENTED_EDGE('',*,*,#1517,.T.);
#1575 = PLANE('',#1576);
#1576 = AXIS2_PLACEMENT_3D('',#1577,#1578,#1579);
#1577 = CARTESIAN_POINT('',(-66.66,20.,45.));
#1578 = DIRECTION('',(0.,0.,1.));
#1579 = DIRECTION('',(1.,0.,0.));
#1580 = ADVANCED_FACE('',(#1581),#1584,.T.);
#1581 = FACE_BOUND('',#1582,.T.);
#1582 = EDGE_LOOP('',(#1583));
#1583 = ORIENTED_EDGE('',*,*,#1542,.T.);
#1584 = PLANE('',#1585);
#1585 = AXIS2_PLACEMENT_3D('',#1586,#1587,#1588);
#1586 = CARTESIAN_POINT('',(65.42,20.,45.));
#1587 = DIRECTION('',(0.,0.,1.));
#1588 = DIRECTION('',(1.,0.,0.));
#1589 = ( GEOMETRIC_REPRESENTATION_CONTEXT(3) 
GLOBAL_UNCERTAINTY_ASSIGNED_CONTEXT((#1593)) 
GLOBAL_UNIT_ASSIGNED_CONTEXT((#1590,#1591,#1592)) REPRESENTATION_CONTEXT
('Context #1','3D Context with UNIT and UNCERTAINTY') );
#1590 = ( LENGTH_UNIT() NAMED_UNIT(*) SI_UNIT(.MILLI.,.METRE.) );
#1591 = ( NAMED_UNIT(*) PLANE_ANGLE_UNIT() SI_UNIT($,.RADIAN.) );
#1592 = ( NAMED_UNIT(*) SI_UNIT($,.STERADIAN.) SOLID_ANGLE_UNIT() );
#1593 = UNCERTAINTY_MEASURE_WITH_UNIT(LENGTH_MEASURE(2.E-05),#1590,
  'distance_accuracy_value','confusion accuracy');
#1594 = PRODUCT_RELATED_PRODUCT_CATEGORY('part',$,(#7));
#1595 = MECHANICAL_DESIGN_GEOMETRIC_PRESENTATION_REPRESENTATION('',(
    #1596),#1589);
#1596 = STYLED_ITEM('color',(#1597),#15);
#1597 = PRESENTATION_STYLE_ASSIGNMENT((#1598,#1606));
#1598 = SURFACE_STYLE_USAGE(.BOTH.,#1599);
#1599 = SURFACE_SIDE_STYLE('',(#1600,#1604));
#1600 = SURFACE_STYLE_FILL_AREA(#1601);
#1601 = FILL_AREA_STYLE('',(#1602));
#1602 = FILL_AREA_STYLE_COLOUR('',#1603);
#1603 = COLOUR_RGB('',0.447058818107,0.474509808674,0.501960817233);
#1604 = SURFACE_STYLE_RENDERING_WITH_PROPERTIES(.NORMAL_SHADING.,#1603,(
    #1605));
#1605 = SURFACE_STYLE_TRANSPARENT(0.5);
#1606 = CURVE_STYLE('',#1607,POSITIVE_LENGTH_MEASURE(0.1),#1608);
#1607 = DRAUGHTING_PRE_DEFINED_CURVE_FONT('continuous');
#1608 = COLOUR_RGB('',9.803921802644E-02,9.803921802644E-02,
  9.803921802644E-02);
ENDSEC;
END-ISO-10303-21;
